<?xml version="1.0" encoding="UTF-8"?>
<svg id="Layer_1" data-name="Layer 1" xmlns="http://www.w3.org/2000/svg" viewBox="0 0 857.95 467.08">
  <defs>
    <style>
      .cls-1 {
        fill: #fcca59;
      }

      .cls-1, .cls-2, .cls-3 {
        stroke-miterlimit: 10;
      }

      .cls-1, .cls-2, .cls-3, .cls-4 {
        stroke: #000;
        stroke-width: 5px;
      }

      .cls-2 {
        fill: #fff1e0;
      }

      .cls-3 {
        fill: #ff90c4;
      }

      .cls-5, .cls-4 {
        fill: #f67a3e;
      }

      .cls-4 {
        stroke-linecap: round;
        stroke-linejoin: round;
      }
    </style>
  </defs>
  <path class="cls-4" d="m636.74,28.25h-194.41c-4.48,0-8.93.15-13.35.42-4.42-.27-8.86-.42-13.35-.42h-194.41C100.42,28.25,2.5,125.93,2.5,246.41s97.92,218.17,218.72,218.17h194.41c4.48,0,8.93-.15,13.35-.42,4.42.26,8.87.42,13.35.42h194.41c120.79,0,218.72-97.69,218.72-218.17S757.53,28.25,636.74,28.25Z"/>
  <path class="cls-1" d="m618.49,52.29h-176.23c-4.06,0-8.09.13-12.1.37-4-.24-8.04-.37-12.1-.37h-176.23c-109.5,0-198.26,86.92-198.26,194.12s88.76,194.12,198.26,194.12h176.23c4.06,0,8.1-.13,12.1-.37,4,.24,8.03.37,12.1.37h176.23c109.5,0,198.26-86.92,198.26-194.12s-88.76-194.12-198.26-194.12Z"/>
  <path class="cls-2" d="m596.57,79.83h-155.72c-3.59,0-7.15.12-10.69.32-3.54-.2-7.1-.32-10.69-.32h-155.72c-96.76,0-175.19,74.59-175.19,166.59s78.44,166.59,175.19,166.59h155.72c3.59,0,7.15-.12,10.69-.32,3.54.2,7.1.32,10.69.32h155.72c96.76,0,175.19-74.59,175.19-166.59s-78.44-166.59-175.19-166.59Z"/>
  <path class="cls-3" d="m598.04,173.75c0-60.19-26.69-86.88-86.87-86.88,60.19,0,86.88-26.69,86.88-86.87,0,60.19,26.69,86.87,86.87,86.87-60.19,0-86.87,26.69-86.88,86.88Z"/>
  <path class="cls-3" d="m135.26,440.53c0-49.66-22.01-71.67-71.67-71.67,49.65,0,71.67-22.02,71.67-71.67,0,49.66,22.02,71.67,71.67,71.67-49.65,0-71.67,22.02-71.67,71.67Z"/>
  <g>
    <g>
      <polygon points="136.56 278.96 136.56 198.1 191.19 198.1 191.19 215.52 155.2 215.52 155.2 233.48 187.53 233.48 187.53 250.9 155.2 250.9 155.2 278.96 136.56 278.96"/>
      <path d="m220.18,279.93c-18.74,0-32.86-14.02-32.86-32.62s14.13-32.74,32.86-32.74,32.74,14.38,32.74,32.74-14.38,32.62-32.74,32.62Zm0-47.09c-8.45,0-14.35,5.9-14.35,14.35s5.9,14.47,14.35,14.47,14.1-5.95,14.1-14.47-5.93-14.35-14.1-14.35Z"/>
      <path d="m284.35,279.93c-18.74,0-32.86-14.02-32.86-32.62s14.13-32.74,32.86-32.74c16.74,0,30.34,11.75,31.64,27.33l.18,2.13-18.6.3-.39-1.52c-1.61-6.24-6.41-9.97-12.83-9.97-8.45,0-14.35,5.9-14.35,14.35s5.9,14.47,14.35,14.47c6.58,0,11.35-3.77,13.07-10.34l.39-1.49h18.5l-.21,2.19c-1.53,16.18-14.88,27.92-31.76,27.92Z"/>
      <path d="m340.71,279.93c-15.01,0-25.91-11.36-25.91-27.01v-37.74h18.52v34.21c0,11.09,5.58,12.52,10.44,12.52,7.9,0,13.02-5.86,14.35-7.56v-39.16h18.64v63.78h-16.45l-1.17-5.85c-5.09,4.53-11.27,6.83-18.42,6.83Z"/>
      <path d="m402.32,279.93c-15.23,0-26.59-10.05-27.01-23.9l-.06-2.06h14.6c-7.21-2.88-13.69-7.99-13.69-18.74,0-11.97,10.59-20.67,25.18-20.67s24.54,9.66,24.93,24.03l.06,2.06h-18.51l-.28-1.67c-.69-4.13-2.88-6.14-6.69-6.14-3.07,0-6.17.95-6.17,2.76s4.78,3.12,9.41,4.32c9.62,2.49,22.79,5.89,22.79,20.45,0,11.89-9.64,19.57-24.57,19.57Zm-8.38-24.21c.46,3.72,3.69,5.93,8.63,5.93,3.29,0,5.69-.9,5.69-2.15-.46-.82-4.71-1.79-7.52-2.43-2.11-.48-4.46-1.02-6.84-1.72l.05.37Z"/>
    </g>
    <g>
      <polygon points="510.6 278.96 510.6 250.49 499.07 278.96 481.73 278.96 470.2 250.49 470.2 278.96 451.56 278.96 451.56 198.1 469.55 198.1 490.4 249.66 511.25 198.1 529.24 198.1 529.24 278.96 510.6 278.96"/>
      <path d="m561.28,279.93c-18.74,0-32.86-14.02-32.86-32.62s14.13-32.74,32.86-32.74,32.74,14.38,32.74,32.74-14.38,32.62-32.74,32.62Zm0-47.09c-8.45,0-14.35,5.9-14.35,14.35s5.9,14.47,14.35,14.47,14.1-5.95,14.1-14.47-5.93-14.35-14.1-14.35Z"/>
      <path d="m623.75,279.93c-17.83,0-31.28-14.02-31.28-32.62s13.45-32.74,31.28-32.74c6.02,0,11.76,1.88,16.54,5.35v-23.65h18.64v82.69h-17.12l-.79-4.9c-4.89,3.82-10.9,5.88-17.27,5.88Zm1.59-47.33c-8.59,0-14.59,6.05-14.59,14.71s6,14.59,14.59,14.59,14.96-6,14.96-14.59-6.15-14.71-14.96-14.71Z"/>
      <path d="m690.24,279.93c-18.74,0-32.86-14.02-32.86-32.62s14.13-32.74,32.86-32.74,31.86,12.02,32.38,30.61v7.67s-45.75,0-45.75,0c1.98,5.42,7,8.81,13.37,8.81,5.57,0,10.35-2.7,12.48-7.05l.55-1.12h19.2l-.36,2.31c-2.13,13.76-15.83,24.14-31.87,24.14Zm10.05-42.67c-2.38-2.84-5.9-4.42-10.05-4.42s-8.11,1.61-10.71,4.42h20.76Z"/>
    </g>
  </g>
  <g>
    <path class="cls-5" d="m183.26,245.14h-32.33v28.06h-14.64v-76.86h50.63v13.42h-35.99v21.96h32.33v13.42Z"/>
    <path class="cls-5" d="m217.91,212.82c16.83,0,30.74,12.81,30.74,30.74s-13.91,30.62-30.74,30.62-30.86-12.81-30.86-30.62,13.79-30.74,30.86-30.74Zm0,47.09c8.78,0,16.1-6.34,16.1-16.47s-7.32-16.35-16.1-16.35-16.35,6.34-16.35,16.35,7.32,16.47,16.35,16.47Z"/>
    <path class="cls-5" d="m296.84,238.56c-1.83-7.08-7.44-11.47-14.76-11.47-9.03,0-16.35,6.34-16.35,16.35s7.32,16.47,16.35,16.47c7.44,0,13.05-4.39,15.01-11.83h14.76c-1.46,15.49-14.4,26.11-29.77,26.11-17.08,0-30.86-12.81-30.86-30.62s13.79-30.74,30.86-30.74c15.49,0,28.42,10.86,29.64,25.5l-14.88.24Z"/>
    <path class="cls-5" d="m314.53,213.43h14.52v32.21c0,10.13,4.39,14.52,12.44,14.52,10.37,0,16.35-8.91,16.35-8.91v-37.82h14.64v59.78h-12.81l-1.59-7.93c-5,5.73-11.59,8.91-19.64,8.91-13.91,0-23.91-10.61-23.91-25.01v-35.74Z"/>
    <path class="cls-5" d="m422.62,256.61c0,10.61-8.54,17.57-22.57,17.57-14.76,0-24.64-9.76-25.01-21.96h14.64c.61,4.88,4.88,7.69,10.61,7.69,4.51,0,7.69-1.46,7.69-4.15,0-6.59-32.08-1.71-32.08-24.28,0-10.25,9.15-18.67,23.18-18.67s22.57,8.91,22.94,22.08h-14.76c-.85-5.12-3.9-7.81-8.66-7.81s-8.17,1.71-8.17,4.76c0,8.78,32.21,3.42,32.21,24.76Z"/>
    <path class="cls-5" d="m480.81,273.2l-14.88-36.72v36.72h-14.64v-76.86h14.64l22.2,54.9,22.2-54.9h14.64v76.86h-14.64v-36.72l-14.88,36.72h-14.64Z"/>
    <path class="cls-5" d="m559.01,212.82c16.83,0,30.74,12.81,30.74,30.74s-13.91,30.62-30.74,30.62-30.86-12.81-30.86-30.62,13.79-30.74,30.86-30.74Zm0,47.09c8.78,0,16.1-6.34,16.1-16.47s-7.32-16.35-16.1-16.35-16.35,6.34-16.35,16.35,7.32,16.47,16.35,16.47Z"/>
    <path class="cls-5" d="m640.02,194.52h14.64v78.69h-13.42l-1.1-6.83c-5,5.12-11.71,7.81-18.67,7.81-16.35,0-29.28-12.81-29.28-30.62s12.93-30.74,29.28-30.74c6.95,0,13.54,2.68,18.54,7.69v-25.98Zm-16.96,32.33c-9.15,0-16.59,6.47-16.59,16.71s7.44,16.59,16.59,16.59,16.96-6.47,16.96-16.59-7.56-16.71-16.96-16.71Z"/>
    <path class="cls-5" d="m717.85,251.73c-2.07,13.42-15.74,22.45-29.89,22.45-17.08,0-30.86-12.81-30.86-30.62s13.79-30.74,30.86-30.74,29.89,11.1,30.38,28.67v5.61h-46.36c1.46,7.93,8.05,12.81,15.98,12.81,6.1,0,11.71-2.93,14.27-8.17h15.62Zm-16.23-16.23c-2.44-5.25-7.44-8.42-13.66-8.42s-11.83,3.17-14.52,8.42h28.18Z"/>
  </g>
</svg>