<?xml version="1.0" encoding="UTF-8"?>
<svg id="Layer_1" data-name="Layer 1" xmlns="http://www.w3.org/2000/svg" viewBox="0 0 987.37 871.21">
  <defs>
    <style>
      .cls-1, .cls-2 {
        fill: #fff1e0;
      }

      .cls-3 {
        fill: #f57a3f;
      }

      .cls-4 {
        fill: #f77a3a;
      }

      .cls-2 {
        stroke: #f77a3a;
        stroke-miterlimit: 10;
        stroke-width: 15.17px;
      }
    </style>
  </defs>
  <rect class="cls-1" x="0" width="987.37" height="871.21" rx="90.96" ry="90.96"/>
  <path class="cls-2" d="m738.71,118.86H248.65c-64.8,0-117.33,52.53-117.33,117.33v398.83c0,64.8,52.53,117.33,117.33,117.33h490.06c64.79,0,117.33-52.53,117.33-117.33V236.19c0-64.79-52.53-117.33-117.33-117.33Z"/>
  <path d="m489.54,692.86c-10.65,0-20.9-.78-30.48-2.32-18.67-3-35.25-8.93-49.3-17.63-12.95-8.02-24.75-19.09-34.13-32-9.62-13.24-16.68-28.13-21-44.25-4.64-17.33-6.21-35.71-4.68-54.62,1.45-17.79,5.56-35,12.23-51.14,6.87-16.63,16.12-31.35,27.47-43.72,11.34-12.36,24.61-22.23,39.43-29.32,15.53-7.43,32.86-11.26,51.52-11.38h1c16.45,0,33.81,2.45,54.64,7.73,18.86,4.78,33.46,10.28,45.92,17.32.4.23.8.45,1.2.69l5.25-6.28v-.1c.64-6.4,1.57-14.82,3.28-23.3.61-3.04,2.41-4.86,4.81-4.86.31,0,.63.03.96.09,1.2.24,2.26.99,3.05,2.17.31.46.56.96.75,1.49l2.02-9.67c.59-2.81,2.9-4.94,5.9-5.43.26-.04.52-.06.79-.06,1.57,0,3.12.7,4.04,1.83.77.95,1.06,2.13.81,3.34l-.8,3.84,10.15-12.16c1-1.2,2.31-1.86,3.68-1.86s2.62.64,3.61,1.8c1.87,2.2,1.91,6.19.08,8.38l-12.83,15.37c4.38-.97,8.73-2.08,13.01-3.32.41-.12.82-.18,1.22-.18,2.71,0,4.38,2.53,4.77,4.88.47,2.76-.98,6.28-3.89,7.12-8.2,2.38-16.62,4.27-25.08,5.64,2.63-.32,5.05-.64,7.37-.97.21-.03.41-.04.61-.04,2.83,0,4.68,2.8,5.03,5.56.36,2.81-1.19,6.12-4.32,6.58-1.99.29-4.11.57-6.69.88-4.88.6-10,1.16-15.25,1.68l-3.02,3.62c10,7.28,18.24,15.97,24.53,25.87,7.79,12.26,13.4,27.09,16.68,44.06,2.74,14.14,3.81,29.54,3.29,47.09-.16,5.01-.41,9.43-.77,13.52-.83,9.45-2.31,18.51-4.38,26.91-2.49,10.1-5.57,18.94-9.43,27.03-4.49,9.41-9.96,17.99-16.25,25.5-6.58,7.84-14.36,14.78-23.12,20.62-9.42,6.27-20.07,11.36-31.68,15.12-12.5,4.05-26.36,6.74-41.2,7.99-7.12.6-14.11.91-20.77.91Zm-9.4-274.77c-8.99,0-17.6.86-25.61,2.55-14.38,3.04-28.14,9.32-40.89,18.66-11.87,8.69-22.48,20.14-30.69,33.11-2.16,3.42-4.22,7-6.11,10.65-.99,1.91-1.41,2.77-2.35,4.8-.86,1.86-1.71,3.8-2.51,5.74-1.52,3.68-2.92,7.49-4.18,11.35-1.23,3.78-2.37,7.79-3.21,11.28-4.04,16.86-5.4,33.79-4.02,50.33,1.42,17.12,5.73,33.2,12.78,47.79,6.32,13.06,15.24,25.23,25.8,35.18,10.78,10.16,24.12,18.23,38.59,23.32,15.05,5.3,31.81,8.11,49.82,8.35,1.16.02,2.32.02,3.49.02,14.41,0,28.13-1.23,40.78-3.66,1.6-.31,3.19-.64,4.73-.98.83-.18,1.66-.37,2.48-.57l.92-.22h0c.11-.02.79-.2.79-.2,3.01-.77,5.99-1.63,8.85-2.55,5.53-1.78,10.85-3.88,15.81-6.23,1.2-.57,2.41-1.16,3.58-1.77l1.25-.66c.57-.31,1.14-.62,1.7-.94,2.21-1.25,4.4-2.58,6.48-3.96,2.08-1.38,4.14-2.84,6.1-4.35.99-.76,1.98-1.55,2.92-2.33l.74-.62c.24-.21,1.13-.99,1.34-1.17,3.49-3.12,6.79-6.52,9.81-10.1.73-.86,1.44-1.74,2.14-2.62l.56-.73c.32-.42.62-.83.93-1.25,1.32-1.81,2.61-3.7,3.83-5.61,1.19-1.87,2.35-3.83,3.44-5.8.53-.96,1.05-1.93,1.55-2.91.23-.44.45-.89.68-1.34l.39-.8c1.87-3.91,3.57-8.06,5.07-12.33.73-2.07,1.41-4.2,2.04-6.32.31-1.04.61-2.09.89-3.13.15-.55.29-1.1.44-1.64l.17-.7c1.03-4.16,1.91-8.51,2.63-12.94.67-4.14,1.22-8.46,1.62-12.83.19-2.1.36-4.27.49-6.43.07-1.08.12-2.17.17-3.25.02-.52.05-1.04.07-1.56l.04-1.06c.22-7.67.14-14.77-.27-21.67-.97-16.62-3.66-30.91-8.23-43.68-5.23-14.61-12.99-26.9-23.06-36.52-3.02-2.88-6.4-5.65-10.06-8.23l-17.14,20.53c1.13,1.07,2.22,2.17,3.26,3.27,8.2,8.73,14.63,19.24,19.65,32.13,3.99,10.25,7.05,22.01,9.36,35.94,2.58,15.6,2.94,28.15,1.13,39.51-1.96,12.29-6.83,23.57-14.47,33.53-6.35,8.28-14.83,15.92-25.2,22.7-8.76,5.73-18.71,10.86-29.6,15.27-6.94,2.81-13.82,5.07-20.44,6.73-7.36,1.84-14.73,2.98-21.92,3.38-1.76.1-3.55.15-5.3.15-5.83,0-11.58-.54-17.09-1.6-7.8-1.51-15.26-4.09-22.16-7.68-7.63-3.97-14.75-9.13-21.17-15.35-6.99-6.77-13.44-14.9-19.16-24.15-6.93-11.2-12.44-22.82-16.36-34.55-4.61-13.77-6.58-27.3-5.83-40.19.68-11.73,4.01-23.82,9.64-34.96,5.51-10.91,13.16-20.84,22.72-29.51,8.78-7.96,19.14-14.63,30.8-19.8,12-5.33,24.89-8.82,38.31-10.38,4.67-.54,9.38-.82,14.01-.82,9.42,0,18.62,1.13,27.34,3.35,5.91,1.53,11.54,3.5,16.74,5.85,6.2,2.81,12.03,6.22,17.35,10.15l16.16-19.36c-5.78-3.22-12.23-6.16-19.2-8.75-14.74-5.49-31.07-9.68-48.55-12.47-9.86-1.58-18.89-2.34-27.59-2.34Zm-40.09,48.97c-1.31.77-2.55,1.53-3.75,2.3-4.85,3.11-9.41,6.59-13.57,10.35l-.34.31-.75.7c-.52.49-1.04.99-1.55,1.5-.98.97-1.95,1.98-2.87,2.98-1.93,2.09-3.79,4.3-5.52,6.57-.87,1.13-1.72,2.3-2.53,3.47-.22.32-.74,1.08-.74,1.08l-.25.37c-.31.47-.63.98-.95,1.49-1.52,2.43-2.93,4.94-4.2,7.48-1.26,2.51-2.4,5.09-3.4,7.68-.52,1.33-1,2.69-1.45,4.02-.12.36-.44,1.37-.44,1.37l-.09.3c-.18.61-.36,1.24-.53,1.88-1.48,5.45-2.39,11-2.69,16.48-.34,6.17-.03,11.87,1.02,18.49.96,6.07,2.52,12.34,4.63,18.63,1.89,5.61,4.08,10.88,7.1,17.09,5.15,10.58,10.67,19.54,16.89,27.39.71.9,1.44,1.79,2.18,2.67.41.48.82.96,1.23,1.44l.68.77c1.33,1.44,2.94,3.16,4.64,4.81,3.01,2.92,6.17,5.59,9.4,7.95,1.63,1.19,3.32,2.3,4.91,3.32l.62.37c.41.24.82.48,1.24.72.79.45,1.58.88,2.39,1.31,3.21,1.68,6.56,3.13,9.95,4.32.45.16.91.31,1.36.46l.36.11c.9.27,1.74.52,2.6.75,1.64.44,3.33.83,5,1.16,1.64.32,3.33.6,5.02.81.85.11,1.69.2,2.54.29l.43.04c.42.03.85.06,1.27.09,1.74.11,3.52.16,5.3.16,1.58,0,3.2-.04,4.81-.13,1.63-.09,3.31-.22,4.98-.4l.6-.07.98-.12c.84-.11,1.68-.23,2.51-.36,5.73-.9,11.82-2.39,19.17-4.69l1.55-.53c.78-.27,1.56-.55,2.33-.83,1.48-.54,2.99-1.12,4.49-1.73,4.55-1.83,9.06-3.85,13.38-6,2.45-1.22,4.83-2.48,7.1-3.75.37-.21.73-.41,1.1-.62l.98,1.5-.88-1.55s1.34-.79,1.67-.99c1.16-.7,2.32-1.42,3.46-2.16,4.67-3.01,8.97-6.23,12.78-9.55.33-.29.66-.58.99-.88l.52-.46s.59-.55.81-.76c.97-.92,1.91-1.86,2.8-2.79,1.84-1.92,3.57-3.91,5.15-5.92.77-.98,1.52-2,2.24-3.01.2-.29.4-.57.6-.86l.37-.55c.28-.44.56-.87.83-1.31,1.35-2.19,2.57-4.46,3.64-6.76,1.19-2.56,2.32-5.52,3.04-7.92.1-.34.38-1.35.54-1.95.19-.74.37-1.48.54-2.22.32-1.41.6-2.86.84-4.33.93-5.65,1.27-11.65,1.04-18.33l-.03-.75c-.02-.36-.04-.72-.06-1.08-.05-.78-.1-1.57-.16-2.35-.12-1.52-.26-3.1-.44-4.71-.32-2.96-.74-5.97-1.26-9.2-1-6.12-2.21-12.08-3.6-17.69-1.54-6.18-3.24-11.73-5.22-16.96-.26-.69-.53-1.39-.81-2.07l-.54-1.33c-.62-1.47-1.23-2.83-1.84-4.12-1.28-2.71-2.66-5.33-4.11-7.8-1.48-2.52-3.07-4.95-4.73-7.21-.87-1.18-1.77-2.35-2.68-3.45-.44-.54-.89-1.07-1.35-1.59l-.61-.7-.29-.32c-.67-.73-1.37-1.46-2.09-2.18l-16.96,20.31c.71.75,1.41,1.51,2.08,2.27,11.49,13.05,18.79,28.97,20.55,44.82.46,4.31.55,8.5.26,12.48-.62,8.71-2.95,17.21-6.75,24.59-3.4,6.6-8.32,12.83-14.63,18.49-5.24,4.7-11.47,9.17-19.04,13.67-8.42,5-15.72,8.21-22.97,10.11-4.22,1.1-8.53,1.66-12.8,1.66-3.84,0-7.65-.46-11.3-1.35-6.94-1.7-13.88-4.93-20.64-9.57-10.44-7.18-19.86-16.56-27.22-27.13-6.61-9.49-10.8-19.8-12.12-29.8-1.59-12.15.88-24.84,7.15-36.71,3.39-6.42,8.03-12.91,13.79-19.29,6.01-6.66,12.05-11.99,18.48-16.28,7.06-4.71,14.48-7.94,22.07-9.59,3.99-.87,8.18-1.31,12.45-1.31s8.49.43,12.7,1.28c10.53,2.13,20.81,7.03,29.84,14.24l16.8-20.13c-.66-.51-1.33-1-2-1.49-1.12-.81-2.28-1.6-3.45-2.36-.32-.21-.63-.41-.95-.61l-.69-.43-.57-.34c-.28-.17-.56-.33-.83-.49-2.35-1.36-4.8-2.64-7.29-3.79-2.52-1.17-5.13-2.24-7.76-3.18-.66-.24-1.32-.46-1.98-.68l-1.19-.38c-1.28-.39-2.63-.77-4.03-1.13-3.06-.78-6.17-1.42-9.22-1.9-1.53-.24-3.1-.45-4.67-.62-.37-.04-1.61-.16-1.61-.16-.78-.06-1.58-.12-2.39-.17-2.04-.12-4.15-.19-6.27-.19-4.22,0-8.53.24-13.19.72,0,0-1.29.17-1.66.22-.75.1-1.5.21-2.25.33-1.6.25-3.23.54-4.85.86-3.03.6-6.08,1.33-9.06,2.16-1.39.39-2.79.8-4.15,1.24-.13.04-.53.16-.59.18-.06.03-.13.05-.2.08l-.65.22c-.63.22-1.26.44-1.89.66-2.67.96-5.32,2.02-7.89,3.16-2.65,1.17-5.26,2.45-7.78,3.8-.64.34-1.27.69-1.9,1.04l-.9.51-.12.07Zm18.89,134.24c.11.07.23.15.31.21l.53.4c.64.48,1.29.95,1.95,1.41,2.98,2.09,5.99,3.88,8.95,5.33.82.4,1.65.79,2.48,1.14.36.15.71.3,1.07.45l.44.18c1.89.69,3.45,1.18,4.94,1.57,1.62.42,3.27.74,4.88.97.89.12,1.79.22,2.68.28.23.02,1.05.06,1.05.06h.98c3.42.01,7.02-.44,10.67-1.34.94-.23,1.92-.5,2.89-.79.34-.1.68-.21,1.02-.32l.48-.16.55-.19c1.74-.62,3.55-1.35,5.38-2.17,6.23-2.8,12.54-6.43,19.28-11.09.75-.52,1.49-1.05,2.23-1.58.37-.27.73-.54,1.1-.81l.7-.53c1.47-1.15,2.77-2.22,3.98-3.28,2.78-2.43,5.28-4.97,7.43-7.53.58-.69,1.13-1.38,1.66-2.07l.44-.58.28-.38.3-.43c1.04-1.51,1.99-3.05,2.83-4.6.75-1.38,1.47-2.9,2.34-4.92l.29-.75c.16-.44.32-.88.47-1.32.27-.79.53-1.6.76-2.4.52-1.77.95-3.61,1.29-5.46l.09-.43c0-.06.07-.52.07-.52.05-.35.1-.69.15-1.04.11-.87.21-1.77.28-2.66.15-1.81.22-3.65.2-5.49,0-.38-.01-.77-.02-1.15v-.34s-.04-.46-.04-.46c-.05-.89-.14-1.84-.24-2.81-.2-1.81-.47-3.61-.81-5.32-.18-.93-.39-1.86-.61-2.78-.01-.06-.03-.12-.03-.17-.03-.09-.05-.16-.07-.22-.11-.41-.22-.82-.34-1.23-1.02-3.54-2.35-7.08-3.95-10.52l-.33-.69c-.22-.44-.44-.87-.66-1.29-.4-.76-.81-1.51-1.23-2.26-.93-1.65-1.93-3.29-2.99-4.87-.95-1.43-1.96-2.85-3.01-4.22l-.57-.73c-.22-.27-.46-.57-.71-.87-.54-.65-1.08-1.29-1.64-1.92-.88-1-1.79-1.98-2.73-2.94l-16.02,19.18c.2.2.39.41.58.61,1.08,1.15,1.99,2.18,2.79,3.15,3.54,4.29,5.98,8.8,7.24,13.4,1.55,5.64,1.27,11.66-.82,17.41-2.32,6.37-7.03,12.82-13.27,18.18-3.42,2.93-6.86,5.13-10.51,6.72-3.92,1.7-8.3,2.56-13.04,2.56h-.27c-16.05-.11-31.2-12.14-36.05-28.61-2.46-8.36-1.69-17.17,2.1-24.18,3.24-5.99,8.55-11.02,16.7-15.81,4.39-2.58,8.08-4.19,11.63-5.07,2.52-.62,5.03-.94,7.46-.94,2.17,0,4.35.25,6.46.75,3.56.84,7.12,2.43,10.6,4.74l16.15-19.35c-1.37-1.01-2.79-1.97-4.21-2.86-2.99-1.87-6.1-3.48-9.25-4.8-.38-.16-.76-.31-1.14-.46l-.45-.17-.54-.2c-.85-.3-1.73-.6-2.6-.87-1.79-.55-3.63-1.02-5.45-1.4-1.88-.39-3.8-.69-5.7-.89-.96-.1-1.92-.18-2.87-.23l-.6-.03-.04-1.79-.11,1.78h-.07c-.4-.01-.79-.02-1.19-.02h-.29c-3.73,0-7.41.38-10.95,1.12-1.7.36-3.42.81-5.11,1.35l-.47.16c-.25.09-.51.18-.77.28-.39.14-.77.29-1.15.44-.81.32-1.61.65-2.4,1-3.15,1.4-6.31,3.14-9.38,5.16-.77.51-1.53,1.03-2.28,1.56-.37.27-.75.54-1.12.82l-.83.62c-1.32,1.03-2.62,2.11-3.86,3.21-2.79,2.46-5.56,5.21-8.46,8.41-1.31,1.45-2.57,2.91-3.74,4.35-.64.78-1.26,1.57-1.88,2.37-.26.33-.51.67-.76,1.01l-.44.6c-2.09,2.94-3.84,5.73-5.34,8.52-.76,1.42-1.47,2.85-2.1,4.26-.23.51-.45,1.03-.67,1.55,0,0-.31.77-.35.86-.11.3-.23.62-.34.93-.95,2.65-1.69,5.33-2.2,7.98l-.15.84-.04.26c-.09.58-.16,1.16-.22,1.75-.14,1.27-.23,2.56-.27,3.83-.02.63-.02,1.25-.02,1.88,0,.31,0,.62.02.93.08,1.26.18,2.4.31,3.45.15,1.19.35,2.4.59,3.58.09.42.18.84.28,1.26.03.11.06.23.08.34l.02.09c.07.26.14.52.21.78.62,2.21,1.4,4.45,2.33,6.65.23.55.47,1.09.72,1.63l.34.73c.49,1,1.04,2.04,1.61,3.05,1.09,1.95,2.32,3.92,3.66,5.85.65.95,1.35,1.91,2.06,2.85.23.31.46.61.7.91,0,0,.33.43.4.51l.49.61c3.52,4.3,7.52,8.47,11.91,12.39,1.37,1.23,2.75,2.4,4.12,3.49.12.1.24.2.37.31.13.11.26.22.39.32Zm31.59-24.64c.37.05.73.08,1.09.11.41.03.82.06,1.23.07.04,0,.5.04.63.04h0c.18-.02.36-.03.54-.04.18-.01.36-.02.54-.04.36-.03.72-.07,1.08-.11.4-.05.81-.11,1.21-.19.1-.02.38-.06.64-.09h0c.45-.06,1.04-.29,1.61-.5l.45-.17c.69-.25,1.37-.54,2.17-.9l.5-.26c.31-.17.61-.34.92-.52.67-.39,1.35-.83,2-1.28.65-.45,1.29-.93,1.92-1.43l.43-.35.32-.28c.19-.17.38-.33.57-.51,1.23-1.12,2.48-2.4,3.72-3.8,1.17-1.32,2.23-2.66,3.15-3.98l.28-.39.1-.16c.18-.28.36-.57.53-.86.38-.63.74-1.27,1.05-1.89.63-1.22,1.15-2.44,1.57-3.65,0-.02.03-.14.07-.29.2-.81.33-1.31.5-1.68l.03-.15c.05-.23.09-.47.14-.71.19-1.1.3-2.22.32-3.32,0-.53,0-1.07-.03-1.61,0-.13-.05-.62-.05-.62l-.03-.27c-.28-1.97-.85-3.97-1.69-5.94-.04-.09-.08-.18-.12-.27-.07-.16-.15-.31-.21-.47h0c-.24-.48-.48-.93-.74-1.38-.49-.86-1.05-1.75-1.65-2.62-.57-.81-1.19-1.64-1.86-2.46-.09-.1-.17-.21-.26-.31l-15.66,18.75c-1,1.2-2.31,1.86-3.68,1.86s-2.62-.64-3.61-1.8c-1.87-2.2-1.91-6.19-.08-8.38l14.96-17.92c-.1-.08-.34-.25-.34-.25l-.4-.26c-.29-.18-.58-.36-.88-.54-.67-.4-1.35-.76-2.01-1.08-.36-.17-.72-.33-1.08-.49h0s-.21-.09-.21-.09c-.71-.26-1.42-.47-2.12-.65-.17-.04-.34-.07-.51-.11-.16-.03-.33-.06-.49-.1l-.49-.06c-.28-.04-.97-.13-1.43-.16v.05c-.17,0-.35.02-.53.03-.18.01-.36.03-.53.04-.35.03-.7.08-1.05.13-.4.06-.8.13-1.19.22l-.4.1c-1.5.42-3.04.99-4.68,1.76l-.29.13-.34.17c-.34.17-.68.35-1.01.53-.76.41-1.5.84-2.24,1.28-1.5.9-2.83,1.76-4.08,2.65-.67.48-1.32.96-1.93,1.44l-.42.33-.38.32c-.18.16-.35.3-.51.45-1.2,1.09-2.29,2.23-3.21,3.37-.43.53-.85,1.1-1.24,1.67l-.38.63c-.2.35-.4.7-.58,1.06-.67,1.32-1.24,2.81-1.74,4.54l-.16.72c-.07.35-.14.7-.19,1.06-.13.81-.22,1.62-.27,2.43-.05.81-.07,1.63-.05,2.45.01.41.03.82.06,1.23l.05.58c.27,1.83.61,3.42,1.04,4.84.24.78.51,1.57.81,2.33.15.39.31.77.47,1.15l.15.32c.07.14.13.29.19.43,1.53,3.02,3.24,5.58,5.09,7.61l.65.68c.24.24.48.49.73.73.56.54,1.14,1.07,1.73,1.56.6.5,1.21.98,1.83,1.43l.39.28.27.17c.21.14.43.27.64.4,1.3.78,2.48,1.48,3.65,1.9v-.02c.18.06.35.13.53.19.17.06.35.12.52.18.35.12.7.22,1.06.33.81.23,1.64.41,2.34.56l.56.07Z"/>
  <path class="cls-3" d="m609.82,460.1c-6.68-10.52-15.48-19.39-25.62-26.49,1.57-1.89,3.15-3.77,4.72-5.66,5.32-.52,10.63-1.1,15.94-1.75,2.22-.27,4.44-.56,6.65-.88,2.07-.3,3.05-2.69,2.81-4.58-.22-1.72-1.45-4.29-3.61-3.98-4.62.66-9.25,1.22-13.88,1.72,1.07-1.28,2.14-2.56,3.21-3.85,9.33-1.38,18.57-3.39,27.63-6.02,2.01-.58,2.95-3.21,2.63-5.11-.3-1.76-1.63-3.9-3.74-3.28-5.99,1.74-12.04,3.2-18.16,4.4,4.3-5.15,8.6-10.3,12.89-15.44,1.08-1.29,2.15-2.58,3.23-3.86,1.3-1.56,1.23-4.55-.07-6.08-1.36-1.6-3.24-1.53-4.56.05-4.91,5.88-9.82,11.76-14.73,17.64.75-3.61,1.51-7.22,2.26-10.83.43-2.04-1.87-3.26-3.6-2.98-2.17.35-3.98,1.85-4.44,4.03-1.55,7.42-3.1,14.85-4.65,22.27-.36.43-.72.86-1.08,1.29-.51.61-1.02,1.22-1.53,1.83.24-1.82.5-3.65.78-5.46.38-2.5.81-5,1.31-7.48.36-1.79-.76-4.67-2.74-5.06-2.23-.44-3.29,1.51-3.67,3.36-1.54,7.63-2.49,15.38-3.25,23.12-.02.21-.04.43-.06.64-2.19,2.62-4.38,5.25-6.57,7.87-.82-.49-1.64-.97-2.47-1.44-14.15-7.99-29.78-13.16-45.48-17.14-18.03-4.57-36.54-7.79-55.19-7.67-17.51.11-34.93,3.62-50.76,11.2-14.67,7.02-27.89,16.94-38.88,28.92-11.57,12.61-20.61,27.4-27.14,43.2-6.63,16.06-10.69,33.29-12.1,50.6-1.47,18.13-.09,36.43,4.62,54.01,4.19,15.65,11.19,30.55,20.72,43.67,9.06,12.48,20.5,23.4,33.63,31.53,14.73,9.13,31.59,14.65,48.64,17.39,16.75,2.69,33.94,2.82,50.81,1.39,13.82-1.17,27.59-3.63,40.8-7.91,10.99-3.56,21.61-8.49,31.23-14.91,8.47-5.64,16.2-12.48,22.74-20.28,6.43-7.66,11.71-16.1,16.01-25.12,4.07-8.54,7.04-17.51,9.3-26.69,2.16-8.75,3.54-17.67,4.33-26.64.39-4.46.62-8.94.76-13.41.47-15.61-.28-31.34-3.25-46.7-2.96-15.32-8.04-30.22-16.44-43.44Zm12.51,95.27c-.05,1.09-.11,2.19-.17,3.28-.13,2.16-.3,4.33-.49,6.49-.4,4.34-.94,8.66-1.64,12.96-.71,4.39-1.59,8.76-2.66,13.07-.05.22-.11.43-.16.65,0,0,0,.01,0,.02-.15.57-.3,1.14-.46,1.71-.29,1.06-.59,2.12-.9,3.17-.64,2.15-1.33,4.29-2.07,6.41-1.49,4.26-3.2,8.44-5.14,12.51-.11.22-.21.44-.32.66-.26.51-.51,1.02-.77,1.52-.51.99-1.04,1.98-1.58,2.95-1.11,2-2.27,3.97-3.5,5.89-1.24,1.94-2.54,3.85-3.9,5.71-.31.42-.62.85-.94,1.26-.05.07-.2.26-.31.4-.11.14-.23.3-.28.36-.71.9-1.44,1.79-2.18,2.67-3.08,3.66-6.42,7.09-9.99,10.28-.44.39-.89.78-1.33,1.17-.02.01-.03.03-.05.04-.25.21-.5.42-.75.63-.98.81-1.97,1.6-2.97,2.37-2.02,1.55-4.09,3.02-6.21,4.43-2.15,1.42-4.35,2.76-6.59,4.03-.57.32-1.15.64-1.73.96-.07.04-.36.19-.52.28-.21.11-.67.35-.76.4-1.2.62-2.41,1.22-3.63,1.8-5.19,2.46-10.56,4.55-16.03,6.32-2.96.95-5.95,1.81-8.96,2.58-.13.03-.8.2-.8.2-.31.08-.62.15-.93.22-.84.2-1.67.39-2.51.58-1.59.35-3.18.68-4.78.99-14.67,2.82-29.7,3.87-44.62,3.67-17.07-.23-34.26-2.77-50.39-8.45-14.51-5.11-28.06-13.19-39.22-23.71-10.79-10.17-19.76-22.44-26.18-35.7-7.33-15.16-11.56-31.65-12.96-48.41-1.42-17.05.07-34.25,4.07-50.9.85-3.53,2-7.59,3.24-11.41,1.26-3.88,2.67-7.71,4.22-11.47.81-1.95,1.65-3.89,2.54-5.81.94-2.03,1.37-2.91,2.38-4.87,1.9-3.68,3.97-7.28,6.18-10.79,8.19-12.94,18.82-24.56,31.14-33.59,12.42-9.09,26.31-15.74,41.58-18.97,17.74-3.75,36.04-3.07,53.86-.23,16.56,2.65,33.16,6.71,48.89,12.56,7.29,2.71,14.52,5.98,21.31,9.93-1.62,1.94-3.24,3.88-4.85,5.82-4.59,5.49-9.17,10.99-13.76,16.48-5.67-4.35-11.88-8.03-18.37-10.97-5.29-2.4-10.82-4.29-16.44-5.75-13.25-3.37-27.14-4.06-40.7-2.49-13.02,1.51-25.8,4.92-37.79,10.24-11,4.89-21.39,11.4-30.32,19.49-9.11,8.26-16.77,17.99-22.32,28.99-5.36,10.61-8.77,22.37-9.45,34.26-.77,13.4,1.5,26.84,5.74,39.52,4,11.93,9.57,23.48,16.19,34.18,5.34,8.63,11.59,16.74,18.89,23.81,6.16,5.97,13.14,11.09,20.75,15.05,6.8,3.53,14.16,6.06,21.68,7.51,7.21,1.39,14.63,1.83,21.96,1.43,7.28-.4,14.52-1.56,21.58-3.32,6.88-1.72,13.63-4,20.2-6.65,10.19-4.12,20.09-9.09,29.29-15.11,9.3-6.08,17.97-13.45,24.76-22.29,7.38-9.62,12.22-20.74,14.13-32.73,2.05-12.88.99-26.14-1.13-38.93-2-12.09-4.81-24.15-9.26-35.59-4.53-11.63-10.71-22.42-19.28-31.55-1.41-1.5-2.88-2.95-4.41-4.34,3.16-3.79,6.32-7.57,9.48-11.36,3.26-3.91,6.52-7.81,9.79-11.72,4.12,2.8,8.02,5.9,11.62,9.33,10.84,10.36,18.49,23.2,23.51,37.21,5.1,14.24,7.45,29.03,8.33,44.18.42,7.27.48,14.56.27,21.84,0,.28-.03.85-.04,1.06-.02.52-.04,1.05-.07,1.57Zm-106.65-13.4c.02.23.04.47.06.7.03.58.05,1.16.04,1.74-.02,1.21-.14,2.41-.34,3.6-.05.31-.11.62-.18.92-.02.1-.04.2-.07.3,0,0,0,0,0,0,0,0,0,0,0,0-.02.07-.03.14-.05.21-.1.44-.06-.08.03-.2-.18.19-.48,1.65-.55,1.87-.46,1.33-1.02,2.63-1.67,3.88-.35.68-.72,1.34-1.11,1.99-.18.3-.37.6-.56.89-.06.09-.1.16-.12.19-.1.14-.2.28-.3.42-1.01,1.44-2.11,2.82-3.28,4.14-1.21,1.37-2.49,2.7-3.85,3.94-.31.28-.62.55-.94.83-.01.01-.02.02-.04.03-.15.12-.29.24-.44.35-.66.52-1.33,1.02-2.02,1.5-.69.48-1.39.93-2.12,1.35-.32.19-.64.37-.97.55-.16.09-.33.17-.49.26-.02.01-.05.03-.07.04,0,0-.02,0-.03.01-.76.34-1.52.68-2.31.96-.77.28-1.65.66-2.46.76,1.17-.14-.28.04-.52.09-.43.08-.86.15-1.3.2-.39.05-.77.09-1.16.12-.19.02-.39.03-.58.04-.19.01-.39.02-.58.03.19,0,.38-.01.56-.02-.08.1-1.16,0-1.32-.01-.44-.01-.88-.04-1.32-.08-.39-.03-.78-.07-1.17-.12-.19-.02-.39-.06-.58-.08-.02,0-.04,0-.06,0-.85-.18-1.7-.36-2.54-.6-.38-.11-.75-.22-1.12-.35-.19-.06-.37-.12-.56-.19-.18-.07-.37-.13-.55-.2l.46.18c-1.53-.48-3.04-1.38-4.41-2.2-.33-.2-.66-.42-.99-.63-.15-.11-.29-.21-.44-.31-.66-.48-1.3-.98-1.93-1.51-.63-.53-1.23-1.07-1.82-1.64-.26-.25-.52-.51-.77-.77-.13-.13-.25-.26-.38-.39-.13-.14-.27-.28-.31-.33-2.16-2.37-3.92-5.15-5.36-8.01.09.17-.33-.72-.39-.84-.17-.4-.34-.8-.5-1.21-.32-.81-.6-1.63-.86-2.46-.51-1.67-.85-3.37-1.1-5.09,0-.04-.01-.07-.02-.1,0-.01,0-.03,0-.04-.01-.19-.03-.39-.05-.58-.03-.43-.05-.87-.07-1.31-.02-.87,0-1.74.05-2.61.06-.87.15-1.74.29-2.6.06-.38.13-.76.21-1.14.04-.19.08-.38.12-.57.01-.07.02-.12.03-.16,0-.03.02-.07.04-.12.48-1.67,1.07-3.3,1.86-4.86.2-.39.41-.77.62-1.15.12-.2.24-.4.36-.6.02-.04.06-.1.09-.15.42-.62.86-1.21,1.33-1.79,1.04-1.28,2.18-2.47,3.4-3.57.17-.15.34-.31.52-.46.03-.03.1-.09.17-.14.12-.1.27-.22.28-.23.14-.12.29-.23.43-.35.65-.51,1.32-1.01,2-1.49,1.36-.96,2.76-1.86,4.2-2.72.76-.46,1.53-.9,2.31-1.32.35-.19.7-.37,1.05-.55.14-.07.28-.15.43-.22.1-.05.21-.09.27-.12,1.6-.74,3.25-1.38,4.96-1.86.03,0,.2-.05.34-.09.07-.02.13-.03.17-.04.43-.09.86-.17,1.29-.24.38-.06.77-.11,1.15-.15.19-.02.39-.04.58-.05.19-.01.39-.02.58-.03-.19,0-.38.01-.56.02.12-.22,2.22.1,2.49.13.13.01.25.03.38.05.37.09.75.14,1.12.24.78.19,1.54.43,2.29.7.04.02.09.03.13.05.01,0,.02,0,.04.01.11.04.22.09.33.12-.08-.03-.14-.05-.21-.07.39.17.78.35,1.17.53.73.35,1.44.74,2.14,1.15.31.18.62.37.93.57.15.1.3.2.46.3,0,0,0,0,0,0,.02.01.04.03.07.05.62.45,1.23.91,1.83,1.38-4.31,5.16-8.62,10.33-12.93,15.49-1.08,1.29-2.15,2.58-3.23,3.86-1.3,1.56-1.23,4.55.07,6.08,1.36,1.6,3.24,1.53,4.56-.05,5.66-6.78,11.32-13.56,16.98-20.34.04.04.07.08.11.11.17.18.34.37.51.55.01.01.02.03.03.04.35.4.69.8,1.03,1.21.68.83,1.33,1.69,1.94,2.57.62.89,1.2,1.81,1.74,2.75.27.47.53.96.77,1.44.02.03.03.06.05.09.1.26.23.51.34.77.87,2.04,1.5,4.19,1.81,6.4.02.11.03.22.04.32Zm-4.44,15.98s-.02.03-.03.05c.01-.02.02-.03.03-.05Zm-16.13-48.19c-4.38-1.03-8.73-.89-13.08.18-3.95.98-7.66,2.82-11.16,4.87-6.38,3.75-12.46,8.5-16.04,15.12-3.74,6.92-4.15,15.37-1.95,22.83,4.38,14.9,18.46,27.22,34.35,27.33,4.31.03,8.61-.69,12.58-2.41,3.72-1.61,6.99-3.8,10.06-6.43,5.4-4.63,10.3-10.69,12.75-17.43,1.91-5.26,2.27-10.91.78-16.33-1.29-4.68-3.83-9.02-6.9-12.74-.87-1.05-1.78-2.07-2.71-3.06-.55-.58-1.12-1.16-1.7-1.73,1.49-1.78,2.97-3.56,4.46-5.34,4.62-5.53,9.23-11.06,13.85-16.59,1.45,1.41,2.85,2.88,4.19,4.4.57.65,1.13,1.3,1.67,1.96.25.3.5.61.75.92.19.25.38.49.57.74,1.07,1.41,2.1,2.85,3.07,4.32,1.08,1.62,2.1,3.29,3.06,4.98.43.76.85,1.54,1.26,2.31.23.43.45.87.66,1.3,0,.02.06.12.11.23.08.17.22.45.24.51,1.63,3.48,2.99,7.09,4.05,10.78.12.42.24.84.35,1.26.02.06.05.15.09.25,0,.04.01.1.03.19.22.95.44,1.89.62,2.85.36,1.81.63,3.64.84,5.48.1.96.19,1.92.25,2.89.01.17.02.35.03.52.01.51.03,1.01.03,1.52.02,1.89-.05,3.77-.21,5.65-.08.92-.17,1.83-.29,2.74-.06.48-.13.96-.2,1.44,0,.04-.01.1-.02.15-.03.17-.07.33-.1.5-.35,1.9-.79,3.78-1.33,5.63-.24.83-.5,1.66-.78,2.48-.16.46-.32.91-.49,1.36-.07.18-.14.36-.2.54-.04.1-.08.2-.12.3-.74,1.72-1.52,3.42-2.41,5.07-.89,1.64-1.87,3.22-2.93,4.76-.1.15-.21.3-.31.45-.01.02-.23.32-.3.42-.06.08-.11.15-.12.16-.11.15-.22.29-.33.44-.55.73-1.13,1.44-1.71,2.14-2.33,2.77-4.9,5.34-7.62,7.73-1.32,1.16-2.68,2.27-4.07,3.35-.06.05-.13.1-.17.13-.18.14-.37.28-.55.42-.37.28-.74.55-1.12.82-.75.55-1.5,1.08-2.26,1.61-6.17,4.27-12.71,8.18-19.56,11.25-1.81.81-3.65,1.56-5.52,2.23-.19.07-.37.13-.56.2-.05.02-.39.13-.52.17-.35.11-.7.22-1.05.33-.99.3-1.98.57-2.98.82-3.71.91-7.52,1.42-11.34,1.4-.2,0-.39,0-.59,0-.05,0-.1,0-.13,0-.04,0-.08,0-.13,0-.36-.02-.72-.04-1.08-.06-.93-.07-1.87-.17-2.8-.3-1.71-.24-3.41-.58-5.09-1.01-1.72-.44-3.4-1-5.07-1.6-.02,0-.05-.02-.07-.03-.16-.06-.31-.13-.47-.19-.37-.15-.74-.31-1.11-.46-.86-.37-1.71-.77-2.55-1.18-3.2-1.57-6.26-3.43-9.18-5.47-.67-.47-1.34-.95-2-1.44-.18-.14-.37-.27-.55-.41-.06-.04-.14-.1-.22-.14-.31-.22-.59-.49-.88-.72-1.43-1.14-2.83-2.33-4.19-3.55-4.34-3.88-8.41-8.09-12.1-12.59-.17-.21-.34-.41-.5-.62-.07-.09-.22-.29-.33-.43.07.09.16.21.29.38-.36-.47-.73-.94-1.09-1.42-.72-.96-1.42-1.93-2.11-2.92-1.34-1.94-2.59-3.94-3.75-5.99-.58-1.04-1.14-2.09-1.67-3.16-.12-.25-.23-.5-.35-.74-.25-.56-.5-1.11-.74-1.68-.94-2.23-1.75-4.52-2.41-6.86-.07-.27-.15-.54-.22-.81-.04-.14-.06-.3-.1-.44-.1-.45-.2-.9-.3-1.35-.25-1.23-.46-2.47-.61-3.71-.15-1.2-.25-2.4-.33-3.61,0,0,0,0,0,0,0-.32-.02-.65-.02-.97,0-.65,0-1.3.02-1.96.04-1.33.13-2.65.28-3.97.07-.61.14-1.21.23-1.82.02-.11.03-.21.05-.32.05-.29.1-.57.16-.86.54-2.81,1.31-5.56,2.27-8.25.12-.32.23-.64.35-.96.1-.27.61-1.5.13-.35.3-.72.6-1.44.92-2.16.67-1.48,1.39-2.94,2.16-4.37,1.63-3.03,3.48-5.93,5.47-8.73,0,0,.01-.02.02-.02,0,0,0,0,.01-.01.14-.19.28-.38.42-.57.26-.34.52-.69.78-1.03.62-.82,1.26-1.62,1.91-2.42,1.23-1.51,2.5-2.98,3.8-4.42,2.72-2.99,5.57-5.88,8.6-8.55,1.29-1.13,2.61-2.23,3.96-3.29.12-.09.34-.26.39-.3.15-.11.3-.23.45-.34.38-.28.76-.56,1.15-.83.77-.55,1.55-1.08,2.33-1.6,3.06-2.02,6.28-3.81,9.64-5.3.82-.36,1.64-.71,2.47-1.03.39-.15.79-.3,1.19-.45.26-.1.53-.19.8-.29.09-.03.41-.14.51-.17,1.74-.56,3.5-1.03,5.29-1.4,3.82-.8,7.72-1.17,11.62-1.15.44,0,.89.01,1.33.02,0,0,.02,0,.02,0,.04,0,.09,0,.14,0,.2.01.4.02.59.03.99.06,1.97.14,2.96.24,1.97.21,3.93.52,5.87.92,1.89.39,3.77.87,5.61,1.44.9.28,1.79.57,2.68.89.19.07.37.13.56.2.05.02.35.13.49.19.39.15.78.31,1.17.47,3.3,1.38,6.48,3.04,9.5,4.94,1.49.93,2.95,1.92,4.37,2.97.36.27.74.53,1.08.81-.68-.55.12.1.38.31-3.23,3.87-6.46,7.74-9.69,11.6-2.9,3.48-5.8,6.95-8.71,10.43-3.43-2.48-7.22-4.43-11.33-5.4Zm4.09-37.36c-8-1.61-16.44-1.71-24.42.03-7.67,1.67-14.94,4.99-21.46,9.33-6.73,4.49-12.73,9.98-18.15,15.99-5.19,5.76-9.91,12.07-13.53,18.93-5.78,10.94-8.58,23.3-6.96,35.64,1.37,10.47,5.8,20.4,11.81,29.02,7.18,10.31,16.42,19.56,26.76,26.68,6.09,4.19,12.86,7.54,20.06,9.31,7.63,1.88,15.64,1.68,23.23-.3,7.98-2.09,15.44-5.72,22.51-9.91,6.62-3.93,13.03-8.32,18.76-13.47,5.7-5.12,10.72-11.15,14.24-17.98,3.81-7.4,5.97-15.61,6.56-23.9.29-4.04.17-8.13-.26-12.15-1.81-16.27-9.36-31.62-20.11-43.84-1.01-1.15-2.06-2.27-3.14-3.36,2.53-3.03,5.06-6.06,7.58-9.08,3.88-4.65,7.76-9.3,11.64-13.94,1.21,1.17,2.39,2.37,3.53,3.61.11.12.22.24.33.36,0,0,.08.09.14.16.06.07.14.16.14.16.11.12.22.25.32.37.47.54.92,1.08,1.38,1.63.95,1.15,1.86,2.33,2.74,3.53,1.73,2.37,3.34,4.83,4.83,7.36,1.52,2.58,2.91,5.23,4.18,7.94.64,1.36,1.25,2.73,1.84,4.11.02.04.03.07.04.09.05.13.11.26.16.39.13.32.26.64.39.97.28.7.55,1.4.82,2.1,2.12,5.6,3.84,11.35,5.28,17.16,1.46,5.89,2.66,11.85,3.63,17.84.5,3.09.94,6.19,1.28,9.3.17,1.59.32,3.17.44,4.77.06.79.11,1.59.16,2.38.02.37.04.73.06,1.1,0,.18.02.37.03.55,0,.03,0,.04,0,.06,0,.03,0,.08,0,.17.21,6.24-.05,12.51-1.06,18.68-.24,1.48-.53,2.96-.86,4.43-.17.76-.36,1.52-.56,2.28-.16.62-.45,1.66-.56,2.01-.74,2.49-1.93,5.56-3.13,8.16-1.11,2.39-2.36,4.7-3.74,6.94-.28.45-.56.9-.85,1.35-.01.01-.3.44-.39.58-.2.3-.41.59-.61.89-.74,1.05-1.5,2.08-2.29,3.09-1.65,2.11-3.41,4.12-5.26,6.05-.93.97-1.88,1.92-2.86,2.85-.23.21-.45.43-.68.64-.06.05-.12.11-.17.16,0,0,0,0,0,0-.5.45-1,.9-1.51,1.35-4.08,3.55-8.44,6.77-12.99,9.7-1.16.75-2.33,1.47-3.5,2.19-.55.33-1.09.65-1.64.97-.03.02-.06.03-.08.05-.03.02-.06.04-.09.05-.37.21-.74.42-1.11.63-2.36,1.32-4.75,2.59-7.18,3.79-4.42,2.2-8.93,4.22-13.51,6.06-1.51.61-3.02,1.19-4.54,1.75-.78.29-1.57.57-2.36.84-.37.13-.73.25-1.1.38-.17.06-.34.11-.5.17-6.38,2-12.81,3.71-19.43,4.75-.85.13-1.7.26-2.55.37-.34.04-.68.08-1.01.13-.2.02-.41.04-.61.07-1.69.18-3.37.31-5.07.4-3.44.18-6.88.18-10.32-.03-.44-.03-.87-.06-1.31-.09-.15-.01-.3-.03-.46-.04-.87-.08-1.73-.18-2.6-.29-1.72-.22-3.43-.5-5.13-.83-1.72-.34-3.43-.73-5.12-1.19-.87-.23-1.74-.48-2.6-.75-.04-.01-.13-.04-.22-.07-.09-.03-.18-.06-.22-.07-.47-.15-.93-.31-1.4-.47-3.5-1.22-6.91-2.71-10.19-4.42-.82-.43-1.64-.88-2.45-1.34-.42-.24-.85-.49-1.27-.74-.19-.12-.39-.23-.58-.35-.03-.02-.06-.03-.09-.05-1.69-1.09-3.37-2.19-4.99-3.38-3.38-2.47-6.58-5.19-9.59-8.11-1.63-1.58-3.19-3.23-4.73-4.9-.05-.06-.1-.11-.15-.17-.18-.2-.36-.41-.54-.61-.42-.48-.84-.97-1.25-1.46-.75-.89-1.49-1.8-2.22-2.71-6.75-8.53-12.34-17.95-17.09-27.72-2.84-5.83-5.12-11.16-7.19-17.3-2.07-6.17-3.69-12.49-4.71-18.92-1.02-6.49-1.39-12.4-1.04-18.87.32-5.69,1.26-11.35,2.75-16.85.18-.65.36-1.3.56-1.95.02-.07.15-.48.18-.58.12-.37.24-.75.36-1.12.46-1.38.95-2.75,1.47-4.11,1.03-2.66,2.19-5.28,3.47-7.83,1.31-2.61,2.74-5.15,4.28-7.63.32-.52.65-1.04.99-1.55.06-.08.26-.39.33-.49.22-.33.44-.65.67-.97.83-1.2,1.69-2.38,2.58-3.54,1.77-2.32,3.65-4.55,5.63-6.7.95-1.03,1.93-2.04,2.93-3.03.52-.52,1.04-1.03,1.57-1.53.24-.23.49-.46.74-.69.01-.01.03-.02.04-.04.11-.1.23-.21.34-.31,4.3-3.88,8.92-7.4,13.8-10.52,1.23-.79,2.48-1.56,3.74-2.3.07-.04.15-.09.22-.13,0,0,.01,0,.02-.01.29-.16.59-.33.88-.5.64-.36,1.28-.71,1.93-1.06,2.58-1.38,5.22-2.67,7.9-3.85,2.63-1.16,5.3-2.23,8.01-3.21.64-.23,1.28-.45,1.92-.67.21-.07.43-.14.64-.22.48-.16-.26.08-.29.09.36-.15.76-.25,1.13-.36,1.4-.44,2.8-.86,4.21-1.25,3.04-.85,6.1-1.58,9.19-2.19,1.63-.33,3.28-.62,4.92-.88.76-.12,1.52-.23,2.28-.34.38-.05.76-.1,1.14-.15.19-.02.38-.05.57-.07,0,0,0,0,.01,0,6.57-.69,13.15-.95,19.75-.54.82.05,1.63.11,2.45.18.16.02.33.03.49.05.38.04.76.08,1.14.12,1.59.17,3.17.38,4.75.63,3.16.49,6.29,1.14,9.39,1.93,1.38.36,2.75.74,4.11,1.15.19.06.61.19.56.18.22.07.45.15.67.22.68.22,1.35.46,2.02.7,2.68.96,5.32,2.04,7.91,3.24,2.53,1.18,5.02,2.46,7.43,3.86.28.16.57.33.85.5.19.11.38.23.56.34.01,0,.07.04.13.08.11.07.51.32.61.38.32.2.65.41.97.62,1.19.77,2.36,1.58,3.52,2.41,1.19.86,2.36,1.75,3.5,2.66-2.49,2.98-4.98,5.96-7.47,8.95-3.88,4.65-7.76,9.3-11.64,13.95-8.78-7.33-19.18-12.71-30.43-14.98Zm-9.2,174.35s-.05,0-.08,0c.34-.04.63-.07.08,0Zm-.09,0c-.09.01-.17.02-.26.03.08-.01.17-.02.26-.03Z"/>
  <path d="m438.52,585.97c-.2-.26-.81-1.04-.32-2.04l.49-1h1.11c.88,0,1.33.58,1.54.86l-2.82,2.18Z"/>
  <path class="cls-3" d="m439.93,584.88c-.2-.26-.13-.17,0,0h0Z"/>
  <path d="m500.51,523.35c-1.2-.41-1.73-1.12-1.56-2.12l.25-1.49h1.51c.29,0,.53.07.84.18l.21.09-1.25,3.34Z"/>
  <path class="cls-3" d="m501.09,521.66s-.04-.02-.05-.02c-.02-.01-.05-.02-.07-.03-.01,0-.02,0-.04-.01-.21-.08-.42-.13.16.07Z"/>
  <path d="m521.01,554.22s0,0,.01-.01c0,0,0,0,0,0,0,0-.01,0-.02.01Z"/>
  <path class="cls-3" d="m521.01,554.22s0,0,.01-.01c0,0,0,0,0,0,0,0-.01,0-.02.01Z"/>
  <path d="m330.7,258.18c-19.52,0-34.23-14.94-34.23-34.74s14.72-34.74,34.23-34.74c17.94,0,30.78,10.19,33.5,26.6l.34,2.08h-16.75l-.41-1.21c-2.57-7.51-8.49-11.65-16.68-11.65-10.55,0-17.91,7.74-17.91,18.83s7.53,19.03,17.91,19.03c5.92,0,10.73-1.94,13.66-5.41h-14.53v-14.79h34.59v4.85c0,21.42-17.48,31.17-33.72,31.17Z"/>
  <path d="m391.01,258.18c-15.74,0-27.6-11.78-27.6-27.4s11.87-27.5,27.6-27.5,26.76,10.09,27.19,25.71v6.53s-38.22,0-38.22,0c1.67,4.4,5.8,7.15,11.03,7.15,4.62,0,8.58-2.24,10.34-5.84l.49-1h16.26l-.32,2.06c-1.79,11.57-13.29,20.29-26.76,20.29Zm8.17-35.92c-1.96-2.24-4.82-3.47-8.17-3.47s-6.55,1.26-8.7,3.47h16.86Z"/>
  <path d="m453,257.36v-28.32c0-9.27-4.61-10.46-8.62-10.46-6.45,0-10.72,4.56-11.89,5.97v32.8h-15.81v-53.57h14.54l.72,4.71c4.09-3.43,9.2-5.22,14.99-5.22,12.62,0,21.79,9.55,21.79,22.7v31.38h-15.71Z"/>
  <polygon points="489.23 257.36 489.23 243.8 516.11 204.3 491.47 204.3 491.47 189.51 535.25 189.51 535.25 203.17 508.47 242.57 535.96 242.57 535.96 257.36 489.23 257.36"/>
  <path d="m585.92,258.18c-5.29,0-10.28-1.69-14.37-4.83l-.64,4.01h-14.53v-69.39h15.81v19.68c3.98-2.84,8.74-4.37,13.73-4.37,14.98,0,26.27,11.82,26.27,27.5s-11.3,27.4-26.27,27.4Zm-1.33-39.59c-7.3,0-12.4,5.01-12.4,12.2s5.1,12.09,12.4,12.09,12.09-4.97,12.09-12.09-4.97-12.2-12.09-12.2Z"/>
  <path d="m632.55,258.18c-12.62,0-21.79-9.55-21.79-22.7v-31.68h15.71v28.72c0,9.18,4.61,10.36,8.62,10.36,6.47,0,10.75-4.81,11.89-6.26v-32.83h15.81v53.57h-13.96l-.96-4.79c-4.25,3.72-9.39,5.61-15.33,5.61Z"/>
  <path d="m683.58,257.36c-12.22,0-19.23-7.64-19.23-20.97v-17.3h-3.06v-15.3h3.22l1.02-10.92h14.63v10.92h8.37v15.3h-8.37v17.3c0,4.88,1.49,5.66,5.05,5.66h3.83v15.3h-5.46Z"/>
  <path d="m238.44,346.01c-19.52,0-34.23-14.94-34.23-34.74s14.72-34.74,34.23-34.74c17.94,0,30.78,10.19,33.5,26.6l.34,2.08h-16.75l-.41-1.21c-2.57-7.51-8.49-11.65-16.68-11.65-10.55,0-17.91,7.74-17.91,18.83s7.53,19.03,17.91,19.03c5.92,0,10.73-1.94,13.66-5.41h-14.53v-14.79h34.59v4.85c0,21.42-17.48,31.17-33.72,31.17Z"/>
  <path d="m298.86,346.01c-15.74,0-27.6-11.78-27.6-27.4s11.87-27.5,27.6-27.5,27.5,12.08,27.5,27.5-12.08,27.4-27.5,27.4Zm0-39.39c-7,0-11.89,4.89-11.89,11.89s4.89,11.99,11.89,11.99,11.69-4.93,11.69-11.99-4.91-11.89-11.69-11.89Z"/>
  <path d="m351.11,346.01c-14.98,0-26.27-11.78-26.27-27.4s11.3-27.5,26.27-27.5c4.99,0,9.74,1.53,13.73,4.37v-3.86h15.81v53.57h-14.53l-.64-4.01c-4.08,3.13-9.07,4.83-14.37,4.83Zm1.33-39.59c-7.12,0-12.09,5.01-12.09,12.2s4.97,12.09,12.09,12.09,12.4-4.97,12.4-12.09-5.1-12.2-12.4-12.2Z"/>
  <rect x="379.63" y="275.81" width="15.81" height="69.39"/>
  <rect x="394.94" y="306.93" width="36.53" height="14.28"/>
  <path d="m466.21,346.01c-19.52,0-34.23-14.94-34.23-34.74s14.72-34.74,34.23-34.74,34.23,14.94,34.23,34.74-14.72,34.74-34.23,34.74Zm0-53.67c-10.55,0-17.91,7.74-17.91,18.83s7.53,19.03,17.91,19.03,17.91-8,17.91-19.03-7.36-18.83-17.91-18.83Z"/>
  <path d="m499.33,345.19v-53.57h14.54l.72,4.78c4.05-3.39,9.34-5.29,14.99-5.29h1.78v15.71h-4.34c-7.14,0-10.9,4.21-11.89,5.51v32.85h-15.81Z"/>
  <path d="m530.66,345.19v-53.57h2.51c-1.9-1.56-3.12-3.93-3.12-6.58,0-4.7,3.82-8.52,8.52-8.52s8.42,3.82,8.42,8.52c0,2.65-1.2,5.02-3.08,6.58h2.57v53.57h-15.81Z"/>
  <path d="m573.16,346.01c-15.74,0-27.6-11.78-27.6-27.4s11.87-27.5,27.6-27.5,26.76,10.09,27.19,25.71v6.53s-38.22,0-38.22,0c1.67,4.4,5.8,7.15,11.03,7.15,4.62,0,8.58-2.24,10.34-5.84l.49-1h16.26l-.32,2.06c-1.79,11.57-13.29,20.29-26.76,20.29Zm8.17-35.92c-1.96-2.24-4.82-3.47-8.17-3.47s-6.55,1.26-8.7,3.47h16.86Z"/>
  <path d="m635.16,345.19v-28.32c0-9.27-4.61-10.46-8.62-10.46-6.45,0-10.72,4.56-11.89,5.97v32.8h-15.81v-53.57h14.54l.72,4.71c4.09-3.43,9.2-5.22,14.99-5.22,12.62,0,21.79,9.55,21.79,22.7v31.38h-15.71Z"/>
  <path d="m670.72,345.19c-12.22,0-19.23-7.64-19.23-20.97v-17.3h-3.06v-15.3h3.22l1.02-10.92h14.63v10.92h8.37v15.3h-8.37v17.3c0,4.88,1.49,5.66,5.05,5.66h3.83v15.3h-5.46Z"/>
  <path d="m699.8,346.01c-15.74,0-27.6-11.78-27.6-27.4s11.87-27.5,27.6-27.5,26.76,10.09,27.19,25.71v6.53s-38.22,0-38.22,0c1.67,4.4,5.8,7.15,11.03,7.15,4.62,0,8.58-2.24,10.34-5.84l.49-1h16.26l-.32,2.06c-1.79,11.57-13.29,20.29-26.76,20.29Zm8.17-35.92c-1.96-2.24-4.82-3.47-8.17-3.47s-6.55,1.26-8.7,3.47h16.86Z"/>
  <path d="m751.74,346.01c-14.98,0-26.27-11.78-26.27-27.4s11.3-27.5,26.27-27.5c4.99,0,9.74,1.53,13.73,4.37v-19.68h15.81v69.39h-14.53l-.64-4.01c-4.08,3.13-9.07,4.83-14.37,4.83Zm1.33-39.59c-7.12,0-12.09,5.01-12.09,12.2s4.97,12.09,12.09,12.09,12.4-4.97,12.4-12.09-5.1-12.2-12.4-12.2Z"/>
  <g>
    <path class="cls-4" d="m357.45,223.63c0,19.59-15.61,29.39-31.94,29.39-17.86,0-32.45-13.78-32.45-32.96s14.59-32.96,32.45-32.96,29.18,9.69,31.74,25.1h-13.37c-2.76-8.06-9.18-12.86-18.37-12.86-10.82,0-19.69,7.96-19.69,20.61s8.88,20.82,19.69,20.82c7.14,0,13.88-2.76,16.94-8.98h-16.02v-11.22h31.02v3.06Z"/>
    <path class="cls-4" d="m410.83,234.25c-1.74,11.22-13.16,18.78-25,18.78-14.29,0-25.82-10.71-25.82-25.61s11.53-25.71,25.82-25.71,25,9.29,25.41,23.98v4.69h-38.78c1.22,6.63,6.74,10.71,13.37,10.71,5.1,0,9.8-2.45,11.94-6.84h13.06Zm-13.57-13.57c-2.04-4.39-6.22-7.04-11.43-7.04s-9.9,2.65-12.14,7.04h23.57Z"/>
    <path class="cls-4" d="m461.75,252.21h-12.14v-26.53c0-8.57-3.67-12.25-10.41-12.25-8.67,0-13.67,7.14-13.67,7.14v31.63h-12.25v-50h11.22l1.02,6.63c4.08-4.69,9.59-7.14,16.22-7.14,11.63,0,20,8.88,20,20.92v29.59Z"/>
    <path class="cls-4" d="m528.99,252.21h-43.16v-11.22l28.47-41.84h-26.22v-11.22h40.21v11.33l-28.37,41.74h29.08v11.22Z"/>
    <path class="cls-4" d="m564.2,252.21h-11.22v-65.82h12.25v21.73c4.18-4.18,9.69-6.43,15.51-6.43,13.67,0,24.49,10.71,24.49,25.71s-10.82,25.61-24.49,25.61c-5.82,0-11.43-2.25-15.61-6.53l-.92,5.71Zm15.2-10.92c7.65,0,13.88-5.41,13.88-13.88s-6.22-13.98-13.88-13.98-14.18,5.41-14.18,13.98,6.33,13.88,14.18,13.88Z"/>
    <path class="cls-4" d="m607.37,202.21h12.14v26.94c0,8.47,3.67,12.14,10.41,12.14,8.67,0,13.67-7.45,13.67-7.45v-31.63h12.25v50h-10.71l-1.33-6.63c-4.18,4.8-9.69,7.45-16.43,7.45-11.63,0-20-8.88-20-20.92v-29.9Z"/>
    <path class="cls-4" d="m657.88,213.94v-11.73h3.06l1.02-10.92h11.22v10.92h8.37v11.73h-8.37v19.08c0,5.41,1.84,7.45,6.84,7.45h2.04v11.74h-3.67c-11.22,0-17.45-6.84-17.45-19.18v-19.08h-3.06Z"/>
    <path class="cls-4" d="m265.2,311.46c0,19.59-15.61,29.39-31.94,29.39-17.86,0-32.45-13.78-32.45-32.96s14.59-32.96,32.45-32.96,29.18,9.69,31.74,25.1h-13.37c-2.76-8.06-9.18-12.86-18.37-12.86-10.82,0-19.69,7.96-19.69,20.61s8.88,20.82,19.69,20.82c7.14,0,13.88-2.76,16.94-8.98h-16.02v-11.22h31.02v3.06Z"/>
    <path class="cls-4" d="m293.67,289.52c14.08,0,25.71,10.71,25.71,25.71s-11.63,25.61-25.71,25.61-25.82-10.71-25.82-25.61,11.53-25.71,25.82-25.71Zm0,39.39c7.35,0,13.47-5.31,13.47-13.78s-6.12-13.67-13.47-13.67-13.67,5.31-13.67,13.67,6.12,13.78,13.67,13.78Z"/>
    <path class="cls-4" d="m361.43,290.03h12.25v50h-11.22l-.92-5.71c-4.18,4.29-9.8,6.53-15.61,6.53-13.67,0-24.49-10.71-24.49-25.61s10.82-25.71,24.49-25.71c5.82,0,11.33,2.25,15.51,6.43v-5.92Zm-14.18,11.22c-7.65,0-13.88,5.41-13.88,13.98s6.22,13.88,13.88,13.88,14.18-5.41,14.18-13.88-6.33-13.98-14.18-13.98Z"/>
    <path class="cls-4" d="m376.23,274.22h12.25v65.82h-12.25v-65.82Z"/>
    <path class="cls-4" d="m424.5,305.34v10.71h-32.96v-10.71h32.96Z"/>
    <path class="cls-4" d="m461.03,274.93c17.86,0,32.45,13.78,32.45,32.96s-14.59,32.96-32.45,32.96-32.45-13.78-32.45-32.96,14.59-32.96,32.45-32.96Zm0,53.67c10.82,0,19.69-8.16,19.69-20.82s-8.88-20.61-19.69-20.61-19.69,7.96-19.69,20.61,8.88,20.82,19.69,20.82Z"/>
    <path class="cls-4" d="m524.4,301.67h-2.55c-9.49,0-13.67,6.73-13.67,6.73v31.63h-12.25v-50h11.22l1.02,6.73c3.88-4.59,9.69-7.25,16.22-7.25v12.14Z"/>
    <path class="cls-4" d="m533.38,274.93c3.67,0,6.63,3.06,6.63,6.74s-2.96,6.74-6.63,6.74-6.74-3.06-6.74-6.74,3.06-6.74,6.74-6.74Zm-6.12,15.1h12.25v50h-12.25v-50Z"/>
    <path class="cls-4" d="m592.98,322.08c-1.74,11.22-13.16,18.78-25,18.78-14.29,0-25.82-10.71-25.82-25.61s11.53-25.71,25.82-25.71,25,9.29,25.41,23.98v4.69h-38.78c1.22,6.63,6.74,10.71,13.37,10.71,5.1,0,9.8-2.45,11.94-6.84h13.06Zm-13.57-13.57c-2.04-4.39-6.22-7.04-11.43-7.04s-9.9,2.65-12.14,7.04h23.57Z"/>
    <path class="cls-4" d="m643.9,340.04h-12.14v-26.53c0-8.57-3.67-12.25-10.41-12.25-8.67,0-13.67,7.14-13.67,7.14v31.63h-12.25v-50h11.22l1.02,6.63c4.08-4.69,9.59-7.14,16.22-7.14,11.63,0,20,8.88,20,20.92v29.59Z"/>
    <path class="cls-4" d="m645.02,301.77v-11.73h3.06l1.02-10.92h11.22v10.92h8.37v11.73h-8.37v19.08c0,5.41,1.84,7.45,6.84,7.45h2.04v11.74h-3.67c-11.22,0-17.45-6.84-17.45-19.18v-19.08h-3.06Z"/>
    <path class="cls-4" d="m719.62,322.08c-1.74,11.22-13.16,18.78-25,18.78-14.29,0-25.82-10.71-25.82-25.61s11.53-25.71,25.82-25.71,25,9.29,25.41,23.98v4.69h-38.78c1.22,6.63,6.74,10.71,13.37,10.71,5.1,0,9.8-2.45,11.94-6.84h13.06Zm-13.57-13.57c-2.04-4.39-6.22-7.04-11.43-7.04s-9.9,2.65-12.14,7.04h23.57Z"/>
    <path class="cls-4" d="m762.07,274.22h12.25v65.82h-11.22l-.92-5.71c-4.18,4.29-9.8,6.53-15.61,6.53-13.67,0-24.49-10.71-24.49-25.61s10.82-25.71,24.49-25.71c5.82,0,11.33,2.25,15.51,6.43v-21.73Zm-14.18,27.04c-7.65,0-13.88,5.41-13.88,13.98s6.22,13.88,13.88,13.88,14.18-5.41,14.18-13.88-6.33-13.98-14.18-13.98Z"/>
  </g>
</svg>