<?xml version="1.0" encoding="UTF-8"?>
<svg id="Layer_1" data-name="Layer 1" xmlns="http://www.w3.org/2000/svg" viewBox="0 0 603.81 818.34">
  <defs>
    <style>
      .cls-1, .cls-2, .cls-3 {
        fill: #fff;
      }

      .cls-4 {
        fill: none;
      }

      .cls-4, .cls-2 {
        stroke-linecap: round;
        stroke-linejoin: round;
      }

      .cls-4, .cls-2, .cls-5, .cls-3 {
        stroke: #000;
      }

      .cls-4, .cls-2, .cls-3 {
        stroke-width: 5px;
      }

      .cls-5 {
        stroke-width: 6px;
      }

      .cls-5, .cls-6 {
        fill: #f57a3f;
      }

      .cls-5, .cls-3 {
        stroke-miterlimit: 10;
      }
    </style>
  </defs>
  <path class="cls-5" d="m600.81,301.91C600.81,136.82,466.99,3,301.91,3S3,136.82,3,301.91c0,2.46.03,4.92.09,7.37-.06,1.34-.09,2.69-.09,4.04v406.39c0,52.82,42.81,95.63,95.63,95.63h406.39c52.82,0,95.63-42.81,95.63-95.63v-406.39c0-.38-.01-.75-.02-1.13.12-3.41.18-6.84.18-10.28Z"/>
  <rect x="212.07" y="381.53" width="198.49" height="500.64" transform="translate(943.17 320.53) rotate(90)"/>
  <rect class="cls-1" x="54.84" y="520.13" width="492.64" height="190.49"/>
  <g>
    <path class="cls-3" d="m261.99,263.44s6.77-36.42-27.11-55.9c-33.88-19.48-76.23-.85-45.74,43.19,30.49,44.04,6.78,99.09,6.78,99.09,0,0-18.64,61.83,34.72,94.86,53.36,33.03,116.88,9.32,140.6-15.25,23.71-24.56,78.76-56.75,122.8-59.29,44.04-2.54,30.5-77.92-74.53-43.19,0,0,9.31-40.65-44.89-39.8,0,0,3.38-30.49-38.11-28.8,0,0-16.28-50.1-74.53,5.08Z"/>
    <path class="cls-3" d="m230.65,444.69c-17.21-10.66-26.9-24.31-32.18-37.91h0s-21.18,36.21,12.76,61.68c49.48,33.39,84.95,11.02,104.69-10.61h0c-26.4,5.86-57.24,4.19-85.28-13.16Z"/>
    <path class="cls-4" d="m374.63,287.15s-32.5-4.02-58.7,32.18c-26.2,36.21-15.4,52.72-4.6,58.44,10.8,5.72,23.5,3.26,74.32-45.38"/>
    <path class="cls-4" d="m336.51,258.36s-47.43,16.51-62.04,48.27c-14.61,31.76,6.41,49.2,25.76,44.93"/>
    <path class="cls-4" d="m261.99,263.44s-39.34,42.98,7.86,58.97"/>
    <line class="cls-2" x1="419.52" y1="326.96" x2="374.2" y2="366.97"/>
  </g>
  <rect x="74.26" y="590.14" width="15.04" height="61.96"/>
  <polygon points="88.77 602.88 90.45 585.45 102.45 585.45 102.45 588.45 98.48 602.88 88.77 602.88"/>
  <polygon points="146.66 652.1 146.66 632.66 138.78 652.1 125.05 652.1 117.17 632.66 117.17 652.1 102.13 652.1 102.13 590.14 116.52 590.14 131.91 628.2 147.31 590.14 161.7 590.14 161.7 652.1 146.66 652.1"/>
  <path d="m205.6,652.83c-14.35,0-24.31-8.74-25.36-22.27l-.17-2.16h15.92l.27,1.68c.85,5.25,3.96,7.7,9.8,7.7,5.08,0,8.49-1.6,8.49-3.98,0-2.76-4.12-3.91-10.91-5.47-9.45-2.18-22.4-5.17-22.4-19.46,0-11.65,9.34-19.48,23.25-19.48s23.03,8.12,23.62,20.67l.1,2.09h-15.82l-.3-1.65c-.77-4.26-3.1-6.08-7.78-6.08s-7.57,1.49-7.57,3.61c0,2.74,4.11,3.98,10.88,5.71,9.46,2.41,22.43,5.71,22.43,20.05,0,11.2-10.05,19.02-24.45,19.02Z"/>
  <path d="m258.23,652.83c-17.53,0-31.25-13.93-31.25-31.71s13.73-31.71,31.25-31.71,31.25,13.93,31.25,31.71c0,7.57-2.43,14.67-6.89,20.21l9.64,10.77h-19.17l-1.8-2.02c-4,1.83-8.38,2.76-13.04,2.76Zm0-48.39c-9.28,0-15.75,6.82-15.75,16.58s6.63,16.77,15.75,16.77c.64,0,1.25-.03,1.84-.1l-9.76-10.76h19.19l2.51,2.7c1.3-2.47,1.98-5.4,1.98-8.61,0-9.76-6.48-16.58-15.76-16.58Z"/>
  <path d="m315.82,652.83c-16.58,0-27.3-11.18-27.3-28.5v-34.2h15.04v32.27c0,13.93,5.94,15.85,12.35,15.85s12.17-1.92,12.17-15.85v-32.27h15.04v34.2c0,17.31-10.72,28.5-27.3,28.5Z"/>
  <path d="m379.1,652.1l-4.42-12.05h-17.63l-4.42,12.05h-16.21l22.52-61.96h13.84l22.52,61.96h-16.21Zm-9.55-26.17l-3.68-10.16-3.68,10.16h7.36Z"/>
  <path d="m424.15,652.1l-12.24-21.16h-3.65v21.16h-15.04v-61.96h22.88c14.73,0,24.63,8.2,24.63,20.4,0,8.25-4.66,14.9-12.59,18.18l13.51,23.38h-17.5Zm-8.51-35.28c3.58,0,9.59-.82,9.59-6.28s-6.01-6.28-9.59-6.28h-7.38v12.56h7.38Z"/>
  <polygon points="439.49 652.1 439.49 590.14 481.67 590.14 481.67 604.26 454.53 604.26 454.53 614.06 478.91 614.06 478.91 628.18 454.53 628.18 454.53 637.98 482.59 637.98 482.59 652.1 439.49 652.1"/>
  <path d="m481.35,652.1v-61.96h21.14c18.69,0,31.25,12.45,31.25,30.98s-12.56,30.98-31.25,30.98h-21.14Zm21.14-14.12c10.16,0,15.75-6.02,15.75-16.95s-5.6-16.77-15.75-16.77h-6.1v33.72h6.1Z"/>
  <g>
    <path class="cls-6" d="m70,591.4h11.04v57.96h-11.04v-57.96Z"/>
    <path class="cls-6" d="m84.72,600.14l1.29-13.43h8.19v.74l-3.5,12.7h-5.98Z"/>
    <path class="cls-6" d="m120.14,649.36l-11.22-27.69v27.69h-11.04v-57.96h11.04l16.74,41.4,16.74-41.4h11.04v57.96h-11.04v-27.69l-11.22,27.69h-11.04Z"/>
    <path class="cls-6" d="m221.79,633.08c0,10.4-9.75,17.02-22.45,17.02s-22.35-7.45-23.37-20.42h12.05c1.01,6.25,5.06,9.38,11.78,9.38,6.35,0,10.49-2.3,10.49-5.98,0-10.95-33.3-3.22-33.3-24.93,0-11.22,9.48-17.48,21.25-17.48,12.42,0,21.07,6.9,21.62,18.77h-12.05c-1.01-5.61-4.6-7.73-9.75-7.73-6.16,0-9.57,2.48-9.57,5.61,0,10.86,33.3,3.96,33.3,25.76Z"/>
    <path class="cls-6" d="m267.7,649.36l-2.21-2.48c-4.05,2.12-8.65,3.22-13.52,3.22-16.1,0-29.25-12.42-29.25-29.71s13.16-29.71,29.25-29.71,29.25,12.42,29.25,29.71c0,8.1-2.85,15.09-7.54,20.24l7.82,8.74h-13.8Zm-1.66-17.2c2.3-3.04,3.68-7.08,3.68-11.87,0-11.41-8-18.58-17.76-18.58s-17.75,7.18-17.75,18.58,8,18.77,17.75,18.77c1.93,0,3.86-.28,5.61-.92l-9.02-9.94h13.8l3.68,3.96Z"/>
    <path class="cls-6" d="m284.26,591.4h11.04v30.27c0,13.52,5.52,17.85,14.35,17.85s14.17-4.32,14.17-17.85v-30.27h11.04v32.2c0,16.28-9.75,26.5-25.3,26.5s-25.3-10.21-25.3-26.5v-32.2Z"/>
    <path class="cls-6" d="m349.4,637.31l-4.42,12.05h-11.96l21.07-57.96h11.04l21.07,57.96h-11.96l-4.42-12.05h-20.42Zm16.74-10.12l-6.53-18.03-6.53,18.03h13.06Z"/>
    <path class="cls-6" d="m419.04,649.36l-12.24-21.16h-6.81v21.16h-11.04v-57.96h20.88c13.89,0,22.63,7.64,22.63,18.4,0,8.37-5.15,14.54-13.52,17.11l12.97,22.45h-12.88Zm-19.04-31.28h9.38c7.64,0,11.59-3.22,11.59-8.28s-3.96-8.28-11.59-8.28h-9.38v16.56Z"/>
    <path class="cls-6" d="m470.65,625.44h-24.38v13.8h28.06v10.12h-39.1v-57.96h38.18v10.12h-27.14v13.8h24.38v10.12Z"/>
    <path class="cls-6" d="m477.1,649.36v-57.96h19.14c18.03,0,29.25,12.05,29.25,28.98s-11.22,28.98-29.25,28.98h-19.14Zm11.04-10.12h8.1c11.68,0,17.75-7.36,17.75-18.95s-6.07-18.77-17.75-18.77h-8.1v37.72Z"/>
  </g>
</svg>