<?xml version="1.0" encoding="UTF-8"?>
<svg id="Layer_1" data-name="Layer 1" xmlns="http://www.w3.org/2000/svg" xmlns:xlink="http://www.w3.org/1999/xlink" viewBox="0 0 857.95 571.63">
  <defs>
    <style>
      .cls-1, .cls-2 {
        fill: #fff;
      }

      .cls-3, .cls-2 {
        stroke-linecap: round;
        stroke-linejoin: round;
      }

      .cls-3, .cls-2, .cls-4, .cls-5, .cls-6, .cls-7 {
        stroke: #000;
        stroke-width: 5px;
      }

      .cls-3, .cls-7 {
        fill: none;
      }

      .cls-8 {
        fill: #ffab05;
      }

      .cls-4 {
        fill: #99b7f5;
      }

      .cls-4, .cls-5, .cls-6, .cls-7 {
        stroke-miterlimit: 10;
      }

      .cls-9 {
        clip-path: url(#clippath-1);
      }

      .cls-10 {
        clip-path: url(#clippath-4);
      }

      .cls-5, .cls-11 {
        fill: #f197bd;
      }

      .cls-6 {
        fill: #ff90c4;
      }
    </style>
    <clipPath id="clippath-1">
      <path class="cls-2" d="m482.51,149.36c0,20.11-10.52,36.42-23.49,36.42s-23.49-16.3-23.49-36.42,10.51-36.41,23.49-36.41,23.49,16.31,23.49,36.41Z"/>
    </clipPath>
    <clipPath id="clippath-4">
      <path class="cls-2" d="m422.42,149.36c0,20.11-10.52,36.42-23.49,36.42s-23.49-16.3-23.49-36.42,10.52-36.41,23.49-36.41,23.49,16.31,23.49,36.41Z"/>
    </clipPath>
  </defs>
  <g>
    <path class="cls-11" d="m795.25,212.48h-134.34C649.32,94.6,549.91,2.5,428.98,2.5s-220.34,92.1-231.94,209.98H62.71c0,35.4-26.96,64.09-60.21,64.09v228.47c33.25,0,60.21,28.69,60.21,64.09h732.54c0-35.4,26.96-64.09,60.21-64.09v-228.47c-33.25,0-60.21-28.69-60.21-64.09Z"/>
    <path class="cls-5" d="m795.25,212.48h-134.34C649.32,94.6,549.91,2.5,428.98,2.5s-220.34,92.1-231.94,209.98H62.71c0,35.4-26.96,64.09-60.21,64.09v228.47c33.25,0,60.21,28.69,60.21,64.09h732.54c0-35.4,26.96-64.09,60.21-64.09v-228.47c-33.25,0-60.21-28.69-60.21-64.09Z"/>
  </g>
  <path class="cls-4" d="m770.98,231.72h-135.26c-2.75-111.82-94.26-201.62-206.74-201.62s-203.98,89.8-206.74,201.62H86.98c0,31.05-25.17,56.22-56.22,56.22v200.41c31.05,0,56.22,25.17,56.22,56.22h684c0-31.05,25.17-56.22,56.22-56.22v-200.41c-31.05,0-56.22-25.17-56.22-56.22Z"/>
  <g>
    <path d="m516.63,177.52c13.07-4.73,22.42-17.21,22.42-31.91,0-18.76-15.21-33.97-33.97-33.97-3.16,0-6.2.46-9.1,1.27,2.08-4.4,3.28-9.3,3.28-14.49,0-18.76-15.21-33.97-33.97-33.97-11.67,0-21.96,5.89-28.08,14.86-5.14-12.23-17.23-20.82-31.33-20.82-18.76,0-33.97,15.21-33.97,33.97,0,2.22.23,4.39.63,6.49-3.74-1.42-7.77-2.22-12.01-2.22-18.76,0-33.97,15.21-33.97,33.97,0,11.31,5.54,21.29,14.04,27.47-12.7,4.92-21.71,17.22-21.71,31.65,0,18.76,15.21,33.97,33.97,33.97,2.61,0,5.13-.32,7.57-.88-1.92,4.26-3.02,8.97-3.02,13.95,0,18.76,15.21,33.97,33.97,33.97,11.41,0,21.48-5.64,27.64-14.28,5.21,12.07,17.21,20.53,31.19,20.53,18.76,0,33.97-15.21,33.97-33.97,0-2.29-.23-4.52-.66-6.68,4.17,1.82,8.76,2.85,13.6,2.85,18.76,0,33.97-15.21,33.97-33.97,0-11.5-5.72-21.63-14.46-27.78Z"/>
    <path class="cls-7" d="m516.63,177.52c13.07-4.73,22.42-17.21,22.42-31.91,0-18.76-15.21-33.97-33.97-33.97-3.16,0-6.2.46-9.1,1.27,2.08-4.4,3.28-9.3,3.28-14.49,0-18.76-15.21-33.97-33.97-33.97-11.67,0-21.96,5.89-28.08,14.86-5.14-12.23-17.23-20.82-31.33-20.82-18.76,0-33.97,15.21-33.97,33.97,0,2.22.23,4.39.63,6.49-3.74-1.42-7.77-2.22-12.01-2.22-18.76,0-33.97,15.21-33.97,33.97,0,11.31,5.54,21.29,14.04,27.47-12.7,4.92-21.71,17.22-21.71,31.65,0,18.76,15.21,33.97,33.97,33.97,2.61,0,5.13-.32,7.57-.88-1.92,4.26-3.02,8.97-3.02,13.95,0,18.76,15.21,33.97,33.97,33.97,11.41,0,21.48-5.64,27.64-14.28,5.21,12.07,17.21,20.53,31.19,20.53,18.76,0,33.97-15.21,33.97-33.97,0-2.29-.23-4.52-.66-6.68,4.17,1.82,8.76,2.85,13.6,2.85,18.76,0,33.97-15.21,33.97-33.97,0-11.5-5.72-21.63-14.46-27.78Z"/>
  </g>
  <path class="cls-6" d="m516.63,164.11c13.07-4.73,22.42-17.21,22.42-31.91,0-18.76-15.21-33.97-33.97-33.97-3.16,0-6.2.46-9.1,1.27,2.08-4.4,3.28-9.3,3.28-14.49,0-18.76-15.21-33.97-33.97-33.97-11.67,0-21.96,5.89-28.08,14.85-5.14-12.23-17.23-20.82-31.33-20.82-18.76,0-33.97,15.21-33.97,33.97,0,2.22.23,4.39.63,6.49-3.74-1.42-7.77-2.22-12.01-2.22-18.76,0-33.97,15.21-33.97,33.97,0,11.31,5.54,21.29,14.04,27.47-12.7,4.92-21.71,17.22-21.71,31.65,0,18.76,15.21,33.97,33.97,33.97,2.61,0,5.13-.32,7.57-.88-1.92,4.26-3.02,8.97-3.02,13.95,0,18.76,15.21,33.97,33.97,33.97,11.41,0,21.48-5.64,27.64-14.28,5.21,12.07,17.21,20.53,31.19,20.53,18.76,0,33.97-15.21,33.97-33.97,0-2.29-.23-4.53-.66-6.69,4.17,1.82,8.76,2.85,13.6,2.85,18.76,0,33.97-15.21,33.97-33.97,0-11.5-5.72-21.63-14.46-27.78Z"/>
  <g>
    <path class="cls-8" d="m504.18,154.37c0,41.53-33.67,75.2-75.2,75.2s-75.2-33.67-75.2-75.2,33.67-75.2,75.2-75.2,75.2,33.67,75.2,75.2Z"/>
    <path class="cls-7" d="m504.18,154.37c0,41.53-33.67,75.2-75.2,75.2s-75.2-33.67-75.2-75.2,33.67-75.2,75.2-75.2,75.2,33.67,75.2,75.2Z"/>
  </g>
  <g>
    <g>
      <path class="cls-1" d="m482.51,149.36c0,20.11-10.52,36.42-23.49,36.42s-23.49-16.3-23.49-36.42,10.51-36.41,23.49-36.41,23.49,16.31,23.49,36.41Z"/>
      <g class="cls-9">
        <path d="m475.55,163.84c0,13.91-7.4,25.18-16.53,25.18s-16.52-11.27-16.52-25.18,7.4-25.17,16.52-25.17,16.53,11.27,16.53,25.17Z"/>
        <path class="cls-1" d="m456.21,152.71c0,1.85-.98,3.34-2.19,3.34s-2.2-1.5-2.2-3.34.98-3.34,2.2-3.34,2.19,1.5,2.19,3.34Z"/>
      </g>
      <path class="cls-3" d="m482.51,149.36c0,20.11-10.52,36.42-23.49,36.42s-23.49-16.3-23.49-36.42,10.51-36.41,23.49-36.41,23.49,16.31,23.49,36.41Z"/>
    </g>
    <g>
      <path class="cls-1" d="m422.42,149.36c0,20.11-10.52,36.42-23.49,36.42s-23.49-16.3-23.49-36.42,10.52-36.41,23.49-36.41,23.49,16.31,23.49,36.41Z"/>
      <g class="cls-10">
        <path d="m415.45,163.84c0,13.91-7.4,25.18-16.52,25.18s-16.52-11.27-16.52-25.18,7.4-25.17,16.52-25.17,16.52,11.27,16.52,25.17Z"/>
        <path class="cls-1" d="m396.11,152.71c0,1.85-.98,3.34-2.19,3.34s-2.19-1.5-2.19-3.34.98-3.34,2.19-3.34,2.19,1.5,2.19,3.34Z"/>
      </g>
      <path class="cls-3" d="m422.42,149.36c0,20.11-10.52,36.42-23.49,36.42s-23.49-16.3-23.49-36.42,10.52-36.41,23.49-36.41,23.49,16.31,23.49,36.41Z"/>
    </g>
  </g>
  <g>
    <g>
      <path d="m112.49,418.63c-14.35,0-24.31-8.74-25.36-22.27l-.17-2.16h15.92l.27,1.68c.85,5.25,3.96,7.7,9.8,7.7,5.08,0,8.49-1.6,8.49-3.98,0-2.76-4.12-3.91-10.91-5.47-9.45-2.18-22.4-5.17-22.4-19.46,0-11.65,9.34-19.48,23.25-19.48s23.03,8.12,23.62,20.67l.1,2.09h-15.82l-.3-1.65c-.77-4.26-3.1-6.08-7.78-6.08s-7.57,1.48-7.57,3.61c0,2.74,4.11,3.98,10.88,5.71,9.46,2.41,22.43,5.71,22.43,20.05,0,11.2-10.05,19.02-24.45,19.02Z"/>
      <path d="m165.12,418.63c-17.53,0-31.25-13.93-31.25-31.71s13.73-31.71,31.25-31.71,31.25,13.93,31.25,31.71-13.73,31.71-31.25,31.71Zm0-48.39c-9.28,0-15.75,6.82-15.75,16.58s6.63,16.77,15.75,16.77,15.76-7.05,15.76-16.77-6.48-16.58-15.76-16.58Z"/>
      <polygon points="195.13 417.9 195.13 355.94 237.31 355.94 237.31 370.06 210.17 370.06 210.17 382.62 234.55 382.62 234.55 396.74 210.17 396.74 210.17 417.9 195.13 417.9"/>
      <polygon points="251.16 417.9 251.16 370.06 235.15 370.06 235.15 355.94 282.21 355.94 282.21 370.06 266.2 370.06 266.2 417.9 251.16 417.9"/>
      <polygon points="300.75 417.9 300.75 355.94 315.79 355.94 315.79 403.78 343.85 403.78 343.85 417.9 300.75 417.9"/>
      <rect x="342.61" y="355.94" width="15.04" height="61.96"/>
      <polygon points="356.96 417.9 356.96 355.94 399.14 355.94 399.14 370.06 372 370.06 372 382.62 396.38 382.62 396.38 396.74 372 396.74 372 417.9 356.96 417.9"/>
      <polygon points="397.9 417.9 397.9 355.94 440.08 355.94 440.08 370.06 412.94 370.06 412.94 379.86 437.32 379.86 437.32 393.98 412.94 393.98 412.94 403.78 441 403.78 441 417.9 397.9 417.9"/>
      <path d="m490.79,418.63c-17.53,0-31.25-13.93-31.25-31.71s13.73-31.71,31.25-31.71,31.25,13.93,31.25,31.71-13.73,31.71-31.25,31.71Zm0-48.39c-9.28,0-15.75,6.82-15.75,16.58s6.63,16.77,15.75,16.77,15.76-7.05,15.76-16.77-6.48-16.58-15.76-16.58Z"/>
      <polygon points="556.3 417.9 535.85 385.7 535.85 417.9 520.81 417.9 520.81 355.94 534.95 355.94 555.4 388.21 555.4 355.94 570.44 355.94 570.44 417.9 556.3 417.9"/>
      <polygon points="624.49 417.9 624.49 393.98 604.02 393.98 604.02 417.9 588.98 417.9 588.98 355.94 604.02 355.94 604.02 379.86 624.49 379.86 624.49 355.94 639.53 355.94 639.53 417.9 624.49 417.9"/>
      <path d="m669.55,418.63c-17.53,0-31.25-13.93-31.25-31.71s13.73-31.71,31.25-31.71,31.25,13.93,31.25,31.71-13.73,31.71-31.25,31.71Zm0-48.39c-9.28,0-15.75,6.82-15.75,16.58s6.63,16.77,15.75,16.77,15.76-7.05,15.76-16.77-6.48-16.58-15.76-16.58Z"/>
      <polygon points="699.56 417.9 699.56 355.94 714.6 355.94 714.6 403.78 742.66 403.78 742.66 417.9 699.56 417.9"/>
      <path d="m741.42,417.9v-61.96h21.14c18.69,0,31.25,12.45,31.25,30.98s-12.56,30.98-31.25,30.98h-21.14Zm21.14-14.12c10.16,0,15.75-6.02,15.75-16.95s-5.6-16.77-15.75-16.77h-6.1v33.72h6.1Z"/>
    </g>
    <g>
      <path class="cls-1" d="m126.28,395.31c0,10.4-9.75,17.02-22.45,17.02s-22.35-7.45-23.37-20.42h12.05c1.01,6.26,5.06,9.38,11.78,9.38,6.35,0,10.49-2.3,10.49-5.98,0-10.95-33.3-3.22-33.3-24.93,0-11.22,9.48-17.48,21.25-17.48,12.42,0,21.07,6.9,21.62,18.77h-12.05c-1.01-5.61-4.6-7.73-9.75-7.73-6.16,0-9.57,2.48-9.57,5.61,0,10.86,33.3,3.96,33.3,25.76Z"/>
      <path class="cls-1" d="m156.46,352.9c16.1,0,29.25,12.42,29.25,29.71s-13.16,29.71-29.25,29.71-29.25-12.42-29.25-29.71,13.16-29.71,29.25-29.71Zm0,48.39c9.75,0,17.76-7.36,17.76-18.77s-8-18.58-17.76-18.58-17.75,7.18-17.75,18.58,8,18.77,17.75,18.77Z"/>
      <path class="cls-1" d="m223.9,390.43h-24.38v21.16h-11.04v-57.96h38.18v10.12h-27.14v16.56h24.38v10.12Z"/>
      <path class="cls-1" d="m271.55,363.75h-16.01v47.84h-11.04v-47.84h-16.01v-10.12h43.05v10.12Z"/>
      <path class="cls-1" d="m333.19,411.59h-39.1v-57.96h11.04v47.84h28.06v10.12Z"/>
      <path class="cls-1" d="m335.95,353.63h11.04v57.96h-11.04v-57.96Z"/>
      <path class="cls-1" d="m385.72,390.43h-24.38v21.16h-11.04v-57.96h38.18v10.12h-27.14v16.56h24.38v10.12Z"/>
      <path class="cls-1" d="m426.66,387.67h-24.38v13.8h28.06v10.12h-39.1v-57.96h38.18v10.12h-27.14v13.8h24.38v10.12Z"/>
      <path class="cls-1" d="m482.14,352.9c16.1,0,29.25,12.42,29.25,29.71s-13.16,29.71-29.25,29.71-29.25-12.42-29.25-29.71,13.16-29.71,29.25-29.71Zm0,48.39c9.75,0,17.76-7.36,17.76-18.77s-8-18.58-17.76-18.58-17.75,7.18-17.75,18.58,8,18.77,17.75,18.77Z"/>
      <path class="cls-1" d="m548.74,411.59l-23.55-37.07v37.07h-11.04v-57.96h11.04l23.55,37.17v-37.17h11.04v57.96h-11.04Z"/>
      <path class="cls-1" d="m617.83,377.55v-23.92h11.04v57.96h-11.04v-23.92h-24.47v23.92h-11.04v-57.96h11.04v23.92h24.47Z"/>
      <path class="cls-1" d="m660.89,352.9c16.1,0,29.25,12.42,29.25,29.71s-13.16,29.71-29.25,29.71-29.25-12.42-29.25-29.71,13.16-29.71,29.25-29.71Zm0,48.39c9.75,0,17.76-7.36,17.76-18.77s-8-18.58-17.76-18.58-17.75,7.18-17.75,18.58,8,18.77,17.75,18.77Z"/>
      <path class="cls-1" d="m732.01,411.59h-39.1v-57.96h11.04v47.84h28.06v10.12Z"/>
      <path class="cls-1" d="m734.77,411.59v-57.96h19.14c18.03,0,29.25,12.05,29.25,28.98s-11.22,28.98-29.25,28.98h-19.14Zm11.04-10.12h8.1c11.68,0,17.75-7.36,17.75-18.95s-6.07-18.77-17.75-18.77h-8.1v37.72Z"/>
    </g>
  </g>
</svg>