<?xml version="1.0" encoding="UTF-8"?>
<svg id="Layer_1" data-name="Layer 1" xmlns="http://www.w3.org/2000/svg" viewBox="0 0 434.2 96.88">
  <defs>
    <style>
      .cls-1 {
        fill: #f67a3e;
      }
    </style>
  </defs>
  <path class="cls-1" d="m408.39,62.88c4.37-4.21,8.68-8.37,12.84-12.38,4.15,4.01,8.51,8.21,12.97,12.51-4.4,4.23-8.75,8.4-12.91,12.4-4.08-3.97-8.43-8.19-12.9-12.54Z"/>
  <path class="cls-1" d="m37,58.74c0-1.7-.91-2.95-2.72-3.74-1.82-.79-4.54-1.59-8.17-2.16l-8.62-1.36c-5.67-.91-9.99-2.72-12.94-5.33-3.06-2.72-4.54-6.01-4.54-9.99,0-5.33,2.5-9.76,7.49-13.39,4.99-3.4,11.24-5.22,18.84-5.22,4.54,0,8.74.68,12.71,1.82,3.86,1.36,7.26,3.4,9.99,6.47,2.95,3.06,4.31,6.81,4.31,11.23h-16.57c0-2.61-1.02-4.54-3.06-6.01-2.04-1.48-4.43-2.16-7.15-2.16-2.27,0-4.2.45-5.67,1.36-1.59,1.02-2.38,2.16-2.38,3.4,0,1.36.79,2.5,2.61,3.52,1.59,1.02,3.86,1.7,6.7,2.04l6.92.91c6.01.79,10.89,2.61,14.64,5.56,3.74,2.95,5.67,6.81,5.67,11.57,0,5.56-2.61,10.21-7.83,13.85-5.11,3.63-11.57,5.45-19.4,5.45s-13.96-1.7-19.52-5.22c-5.56-3.4-8.28-8.51-8.28-15.43h16.57c0,3.06,1.02,5.33,3.18,6.92,2.04,1.59,4.54,2.38,7.49,2.38,2.72,0,4.99-.68,6.92-1.93,1.93-1.25,2.84-2.84,2.84-4.54Z"/>
  <path class="cls-1" d="m113.51,96.88h-16.65v-34.38c-.21,3.74-1.92,7.05-5.23,9.82-3.2,2.78-7.37,4.16-12.38,4.16-6.73,0-12.28-2.56-16.87-7.47-4.59-5.12-6.83-11.85-6.83-20.5s2.14-15.05,6.41-20.18c4.38-5.12,10.04-7.69,17.08-7.69,4.8,0,8.86,1.17,11.96,3.74,3.1,2.35,5.12,5.87,5.87,10.25v-12.7h16.65v74.95Zm-16.65-45.16v-4.8c0-3.74-1.17-6.94-3.63-9.5-2.46-2.67-5.23-3.95-8.43-3.95s-6.19,1.39-8.54,4.16c-2.56,2.78-3.74,6.51-3.74,11.32s1.17,8.33,3.52,10.89c2.46,2.56,5.23,3.84,8.54,3.84s6.09-1.17,8.54-3.42c2.46-2.24,3.74-5.12,3.74-8.54Z"/>
  <path class="cls-1" d="m134.67,21.59v31.26c0,3.76.97,6.45,2.9,8.17,1.93,1.72,4.19,2.58,6.88,2.58,3.12,0,5.91-1.18,8.06-3.44,2.36-2.26,3.44-5.16,3.44-8.59v-29.98h16.76v53.83h-16.76v-13c-.22,3.87-1.93,7.2-5.05,9.99-3.12,2.69-7.41,4.08-12.68,4.08-6.12,0-11.17-1.93-14.93-5.8-3.76-3.76-5.69-8.7-5.69-14.83V21.59h17.08Z"/>
  <path class="cls-1" d="m180.12,22.03v11.82h37.39l-25.55,9.6c-12.14,4.55-16.29,13.67-15.02,20.7,1.35,7.49,8.21,12.34,17.45,12.34,10.93,0,21.39-11.36,26.06-23.04v21.46h14.7V22.03h-55.04Zm15.65,42.59c-2.46,0-4.2-1.14-4.56-2.96-.57-2.88,2.29-7.2,9.96-10.33l19.19-7.82c-1.37,9.03-15.18,21.11-24.59,21.11Z"/>
  <path class="cls-1" d="m280.92,20.52v18.05c-1.93-.43-3.98-.64-6.12-.64-5.05,0-9.45,1.18-13,3.54-3.54,2.26-5.37,5.69-5.37,10.21v23.74h-16.65V21.7h16.65v16.33c1.4-5.26,4.08-9.45,8.27-12.68,4.19-3.22,9.56-4.83,16.22-4.83Z"/>
  <path class="cls-1" d="m308.42,64.25c3.22,0,5.8-.86,7.63-2.47,1.93-1.61,2.9-3.65,2.9-6.12h17.19c0,6.34-2.47,11.39-7.41,15.15-4.83,3.76-11.39,5.69-19.55,5.69-9.13,0-16.22-2.36-21.49-7.2-5.16-4.83-7.74-11.39-7.74-19.88s2.69-15.79,8.17-21.06c5.48-5.16,12.57-7.73,21.27-7.73s14.83,2.36,19.55,7.09c4.83,4.83,7.2,11.17,7.2,19.23v5.37h-39.86v.64c0,3.44,1.18,6.12,3.44,8.27,2.26,1.93,5.16,3.01,8.7,3.01Zm-11.17-22.78h21.7c0-2.36-.97-4.3-3.12-5.8-1.93-1.4-4.4-2.15-7.2-2.15-5.48,0-9.35,2.69-11.39,7.95Z"/>
  <path class="cls-1" d="m381.04,34.59V0h16.76v75.42h-16.76v-12.78c-.75,4.4-2.79,7.84-5.91,10.42-3.12,2.36-7.2,3.65-12.03,3.65-7.09,0-12.78-2.58-17.19-7.74-4.3-5.16-6.45-11.93-6.45-20.31s2.26-15.58,6.88-20.52c4.62-5.16,10.21-7.63,16.98-7.63,5.05,0,9.24,1.4,12.46,4.19,3.33,2.79,5.05,6.12,5.26,9.88Zm0,15.69v-4.83c0-3.44-1.29-6.34-3.76-8.6-2.47-2.26-5.37-3.44-8.59-3.44s-6.12,1.29-8.6,3.87c-2.36,2.58-3.55,6.23-3.55,10.96s1.18,8.59,3.76,11.39c2.36,2.79,5.26,4.19,8.6,4.19s6.02-1.29,8.49-3.87c2.47-2.69,3.65-5.91,3.65-9.67Z"/>
</svg>